<?xml version="1.0" encoding="UTF-8"?>
<svg xmlns="http://www.w3.org/2000/svg" xmlns:xlink="http://www.w3.org/1999/xlink" width="320px" height="213px" viewBox="0 0 319 213" version="1.1">
<defs>
<linearGradient id="linear0" gradientUnits="userSpaceOnUse" x1="2891.046" y1="1504.53" x2="2784.353" y2="1449.456" gradientTransform="matrix(0.351006,0,0,-0.681065,-951.588053,1105.937804)">
<stop offset="0" style="stop-color:rgb(0%,62.745098%,100%);stop-opacity:1;"/>
<stop offset="0.007" style="stop-color:rgb(0%,63.137255%,100%);stop-opacity:1;"/>
<stop offset="0.26" style="stop-color:rgb(0%,74.509804%,100%);stop-opacity:1;"/>
<stop offset="0.512" style="stop-color:rgb(0%,82.352941%,100%);stop-opacity:1;"/>
<stop offset="0.76" style="stop-color:rgb(0%,87.45098%,100%);stop-opacity:1;"/>
<stop offset="1" style="stop-color:rgb(0%,89.019608%,100%);stop-opacity:1;"/>
</linearGradient>
<linearGradient id="linear1" gradientUnits="userSpaceOnUse" x1="2935.234" y1="1422.774" x2="2739.434" y2="1422.774" gradientTransform="matrix(0.275769,0,0,-0.232559,-719.402443,437.375095)">
<stop offset="0" style="stop-color:rgb(100%,87.843137%,0%);stop-opacity:1;"/>
<stop offset="0.409" style="stop-color:rgb(100%,74.117647%,0%);stop-opacity:1;"/>
<stop offset="0.775" style="stop-color:rgb(100%,64.705882%,0%);stop-opacity:1;"/>
<stop offset="1" style="stop-color:rgb(100%,61.176471%,0%);stop-opacity:1;"/>
</linearGradient>
<linearGradient id="linear2" gradientUnits="userSpaceOnUse" x1="2948.769" y1="1431.331" x2="2836.642" y2="1285.867" gradientTransform="matrix(0.452931,0,0,-0.349669,-1265.644536,612.121264)">
<stop offset="0" style="stop-color:rgb(100%,22.745098%,26.666667%);stop-opacity:1;"/>
<stop offset="1" style="stop-color:rgb(76.470588%,6.666667%,38.431373%);stop-opacity:1;"/>
</linearGradient>
<linearGradient id="linear3" gradientUnits="userSpaceOnUse" x1="2862.393" y1="1571.747" x2="2912.461" y2="1506.756" gradientTransform="matrix(0.452931,0,0,-0.349487,-1265.644536,611.500725)">
<stop offset="0" style="stop-color:rgb(19.607843%,62.745098%,44.313725%);stop-opacity:1;"/>
<stop offset="0.069" style="stop-color:rgb(17.647059%,65.490196%,44.313725%);stop-opacity:1;"/>
<stop offset="0.476" style="stop-color:rgb(8.235294%,81.176471%,45.490196%);stop-opacity:1;"/>
<stop offset="0.801" style="stop-color:rgb(2.352941%,90.588235%,45.882353%);stop-opacity:1;"/>
<stop offset="1" style="stop-color:rgb(0%,94.117647%,46.27451%);stop-opacity:1;"/>
</linearGradient>
<filter id="alpha" filterUnits="objectBoundingBox" x="0%" y="0%" width="100%" height="100%">
  <feColorMatrix type="matrix" in="SourceGraphic" values="0 0 0 0 1 0 0 0 0 1 0 0 0 0 1 0 0 0 1 0"/>
</filter>
<mask id="mask0">
  <g filter="url(#alpha)">
<rect x="0" y="0" width="319" height="213" style="fill:rgb(0%,0%,0%);fill-opacity:0.2;stroke:none;"/>
  </g>
</mask>
<clipPath id="clip1">
  <rect x="0" y="0" width="319" height="213"/>
</clipPath>
<g id="surface5" clip-path="url(#clip1)">
<path style=" stroke:none;fill-rule:evenodd;fill:rgb(0%,0%,0%);fill-opacity:1;" d="M 74.867188 115.734375 L 42.484375 134.160156 C 40.675781 135.203125 39.0625 135.128906 38.023438 134.183594 L 37.847656 134.359375 L 38.023438 134.507812 C 39.0625 135.449219 40.675781 135.527344 42.484375 134.484375 L 75.089844 115.933594 Z M 74.867188 115.734375 "/>
</g>
<mask id="mask1">
  <g filter="url(#alpha)">
<rect x="0" y="0" width="319" height="213" style="fill:rgb(0%,0%,0%);fill-opacity:0.121569;stroke:none;"/>
  </g>
</mask>
<clipPath id="clip2">
  <rect x="0" y="0" width="319" height="213"/>
</clipPath>
<g id="surface8" clip-path="url(#clip2)">
<path style=" stroke:none;fill-rule:evenodd;fill:rgb(0%,0%,0%);fill-opacity:1;" d="M 85.976562 109.402344 L 74.84375 115.734375 L 75.042969 115.933594 L 85.953125 109.722656 C 87.511719 108.828125 88.28125 107.664062 88.28125 106.496094 C 88.183594 107.5625 87.390625 108.582031 85.976562 109.402344 Z M 85.976562 109.402344 "/>
</g>
<mask id="mask2">
  <g filter="url(#alpha)">
<rect x="0" y="0" width="319" height="213" style="fill:rgb(0%,0%,0%);fill-opacity:0.25098;stroke:none;"/>
  </g>
</mask>
<clipPath id="clip3">
  <rect x="0" y="0" width="319" height="213"/>
</clipPath>
<g id="surface11" clip-path="url(#clip3)">
<path style=" stroke:none;fill-rule:evenodd;fill:rgb(100%,100%,100%);fill-opacity:1;" d="M 42.460938 78.832031 L 85.976562 103.59375 C 87.390625 104.386719 88.183594 105.429688 88.308594 106.5 C 88.308594 105.332031 87.539062 104.164062 85.976562 103.269531 L 42.460938 78.507812 C 39.335938 76.722656 36.808594 78.210938 36.808594 81.785156 L 36.808594 82.109375 C 36.808594 78.535156 39.335938 77.070312 42.460938 78.832031 Z M 42.460938 78.832031 "/>
</g>
</defs>
<g id="surface1">
<path style=" stroke:none;fill-rule:evenodd;fill:url(#linear0);" d="M 37.824219 78.632812 C 37.179688 79.328125 36.808594 80.398438 36.808594 81.785156 L 36.808594 131.203125 C 36.808594 132.59375 37.179688 133.664062 37.847656 134.332031 L 38.023438 134.480469 L 65.667969 106.792969 L 65.667969 106.167969 L 38 78.484375 Z M 37.824219 78.632812 "/>
<path style=" stroke:none;fill-rule:evenodd;fill:url(#linear1);" d="M 74.867188 116.058594 L 65.644531 106.820312 L 65.644531 106.171875 L 74.871094 96.933594 L 75.070312 97.058594 L 85.980469 103.265625 C 89.101562 105.03125 89.101562 107.9375 85.980469 109.722656 L 75.070312 115.933594 C 75.066406 115.933594 74.867188 116.058594 74.867188 116.058594 Z M 74.867188 116.058594 "/>
<path style=" stroke:none;fill-rule:evenodd;fill:url(#linear2);" d="M 75.066406 115.933594 L 65.644531 106.496094 L 37.824219 134.359375 C 38.839844 135.453125 40.550781 135.578125 42.460938 134.507812 L 75.066406 115.933594 "/>
<path style=" stroke:none;fill-rule:evenodd;fill:url(#linear3);" d="M 75.066406 97.058594 L 42.460938 78.507812 C 40.554688 77.417969 38.839844 77.5625 37.824219 78.65625 L 65.640625 106.496094 Z M 75.066406 97.058594 "/>
<use xlink:href="#surface5" mask="url(#mask0)"/>
<use xlink:href="#surface8" mask="url(#mask1)"/>
<use xlink:href="#surface11" mask="url(#mask2)"/>
<path style=" stroke:none;fill-rule:evenodd;fill:rgb(50.196078%,50.980392%,52.156863%);fill-opacity:1;" d="M 98.925781 104.929688 C 98.925781 97.011719 105.570312 90.566406 113.472656 90.566406 C 117.84375 90.566406 120.953125 92.285156 123.296875 94.523438 L 120.535156 97.289062 C 118.859375 95.714844 116.585938 94.488281 113.472656 94.488281 C 107.699219 94.488281 103.1875 99.144531 103.1875 104.925781 C 103.1875 110.707031 107.699219 115.367188 113.46875 115.367188 C 117.210938 115.367188 119.339844 113.863281 120.707031 112.492188 C 121.824219 111.371094 122.558594 109.761719 122.839844 107.550781 L 113.472656 107.550781 L 113.472656 103.636719 L 126.65625 103.636719 C 126.796875 104.339844 126.867188 105.179688 126.867188 106.085938 C 126.867188 109.027344 126.0625 112.671875 123.472656 115.265625 C 120.953125 117.894531 117.738281 119.296875 113.472656 119.296875 C 105.566406 119.296875 98.921875 112.855469 98.921875 104.933594 Z M 137.527344 100.796875 C 132.421875 100.796875 128.253906 104.6875 128.253906 110.042969 C 128.253906 115.367188 132.417969 119.285156 137.527344 119.285156 C 142.632812 119.285156 146.792969 115.363281 146.792969 110.039062 C 146.792969 104.683594 142.632812 100.792969 137.527344 100.796875 Z M 137.527344 115.648438 C 134.730469 115.648438 132.316406 113.339844 132.316406 110.042969 C 132.316406 106.714844 134.726562 104.4375 137.527344 104.4375 C 140.320312 104.4375 142.734375 106.710938 142.734375 110.042969 C 142.734375 113.335938 140.324219 115.648438 137.527344 115.648438 Z M 157.746094 100.796875 C 152.640625 100.796875 148.476562 104.6875 148.476562 110.042969 C 148.476562 115.367188 152.640625 119.285156 157.746094 119.285156 C 162.851562 119.285156 167.011719 115.363281 167.011719 110.039062 C 167.011719 104.683594 162.851562 100.792969 157.746094 100.796875 Z M 157.746094 115.648438 C 154.949219 115.648438 152.535156 113.339844 152.535156 110.042969 C 152.535156 106.714844 154.945312 104.4375 157.746094 104.4375 C 160.539062 104.4375 162.957031 106.710938 162.957031 110.042969 C 162.957031 113.335938 160.539062 115.648438 157.746094 115.648438 Z M 182.558594 101.359375 L 182.558594 102.863281 L 182.421875 102.863281 C 181.511719 101.773438 179.765625 100.792969 177.5625 100.792969 C 172.945312 100.792969 168.710938 104.859375 168.710938 110.082031 C 168.710938 115.261719 172.941406 119.292969 177.5625 119.292969 C 179.765625 119.292969 181.511719 118.3125 182.421875 117.191406 L 182.558594 117.191406 L 182.558594 118.523438 C 182.558594 122.058594 180.671875 123.953125 177.628906 123.953125 C 175.144531 123.953125 173.605469 122.164062 172.976562 120.664062 L 169.441406 122.132812 C 170.457031 124.582031 173.152344 127.597656 177.625 127.597656 C 182.378906 127.597656 186.402344 124.792969 186.402344 117.964844 L 186.402344 101.355469 Z M 177.910156 115.648438 C 175.113281 115.648438 172.765625 113.300781 172.765625 110.082031 C 172.765625 106.824219 175.109375 104.441406 177.910156 104.441406 C 180.671875 104.441406 182.839844 106.820312 182.839844 110.082031 C 182.84375 113.300781 180.675781 115.648438 177.910156 115.648438 Z M 189.203125 91.546875 L 193.261719 91.546875 L 193.261719 118.730469 L 189.203125 118.730469 Z M 204.386719 115.648438 C 202.324219 115.648438 200.851562 114.703125 199.914062 112.851562 L 212.257812 107.730469 L 211.835938 106.679688 C 211.066406 104.617188 208.722656 100.796875 203.929688 100.796875 C 199.175781 100.796875 195.222656 104.542969 195.222656 110.042969 C 195.222656 115.222656 199.140625 119.289062 204.386719 119.289062 C 208.621094 119.289062 211.066406 116.699219 212.082031 115.191406 L 208.933594 113.089844 C 207.882812 114.636719 206.445312 115.652344 204.386719 115.648438 Z M 204.070312 104.367188 C 205.675781 104.367188 207.039062 105.175781 207.496094 106.328125 L 199.238281 109.761719 C 199.136719 106.191406 202.003906 104.367188 204.070312 104.367188 Z M 204.070312 104.367188 "/>
<path style=" stroke:none;fill-rule:evenodd;fill:rgb(50.196078%,50.980392%,52.156863%);fill-opacity:1;" d="M 230.070312 91.546875 L 220.363281 91.546875 L 220.363281 118.730469 L 224.414062 118.730469 L 224.414062 108.433594 L 230.070312 108.433594 C 234.5625 108.433594 238.976562 105.179688 238.976562 99.988281 C 238.976562 94.808594 234.566406 91.550781 230.078125 91.550781 Z M 230.175781 104.648438 L 224.414062 104.648438 L 224.414062 95.328125 L 230.175781 95.328125 C 233.203125 95.328125 234.925781 97.84375 234.925781 99.988281 C 234.925781 102.097656 233.203125 104.648438 230.175781 104.648438 Z M 245.257812 118.730469 L 245.257812 91.546875 L 241.207031 91.546875 L 241.207031 118.730469 Z M 263.449219 118.683594 L 263.449219 108.261719 C 263.449219 103.4375 259.851562 100.746094 255.203125 100.746094 C 252.273438 100.746094 249.238281 102.039062 247.980469 104.90625 L 251.574219 106.40625 C 252.34375 104.90625 253.773438 104.414062 255.277344 104.414062 C 257.371094 104.414062 259.5 105.671875 259.535156 107.914062 L 259.535156 108.195312 C 258.800781 107.777344 257.234375 107.144531 255.308594 107.144531 C 251.433594 107.144531 247.488281 109.277344 247.488281 113.261719 C 247.488281 116.902344 250.667969 119.242188 254.230469 119.242188 C 256.957031 119.242188 258.453125 118.019531 259.394531 116.589844 L 259.535156 116.589844 L 259.535156 118.6875 L 263.449219 118.6875 Z M 254.722656 115.644531 C 253.394531 115.644531 251.542969 114.980469 251.542969 113.339844 C 251.542969 111.238281 253.847656 110.429688 255.839844 110.429688 C 257.621094 110.429688 258.457031 110.8125 259.542969 111.339844 C 259.230469 113.78125 257.171875 115.613281 254.722656 115.644531 Z M 277.691406 101.339844 L 273.050781 113.121094 L 272.910156 113.121094 L 268.089844 101.339844 L 263.726562 101.339844 L 270.953125 117.8125 L 266.832031 126.972656 L 271.054688 126.972656 L 282.191406 101.339844 Z M 277.691406 101.339844 "/>
</g>
</svg>
