<?xml version="1.0" encoding="UTF-8"?>
<svg xmlns="http://www.w3.org/2000/svg" xmlns:xlink="http://www.w3.org/1999/xlink" width="300px" height="50px" viewBox="0 0 300 50" version="1.1">
<g id="surface1">
<path style=" stroke:none;fill-rule:nonzero;fill:rgb(94.901961%,94.901961%,94.901961%);fill-opacity:1;" d="M 57.148438 12.5 C 56.28125 12.453125 55.8125 13.515625 56.46875 14.140625 L 56.53125 14.398438 C 56.523438 14.421875 56.515625 14.4375 56.5 14.453125 C 55.632812 16.53125 52.679688 16.523438 51.804688 14.4375 C 51.03125 12.578125 50.054688 10.734375 49.8125 8.773438 C 49.703125 7.914062 49.75 7.039062 49.953125 6.1875 C 48.148438 10.125 47.195312 14.421875 47.195312 18.734375 C 47.195312 19.820312 47.257812 20.90625 47.375 21.984375 C 47.476562 22.882812 47.617188 23.75 47.796875 24.632812 C 48.75 29.34375 50.84375 33.828125 53.851562 37.578125 C 55.296875 38.375 56.5 39.617188 57.234375 41.09375 C 57.492188 41.625 57.703125 42.195312 57.804688 42.78125 C 57.648438 42.757812 57.171875 45.273438 57.304688 45.429688 C 57.078125 45.773438 56.65625 45.953125 56.414062 46.289062 C 55.164062 47.984375 53.445312 47.679688 52.554688 45.382812 C 50.632812 44.414062 50.617188 42.8125 51.789062 41.28125 C 52.546875 40.296875 52.640625 38.96875 53.296875 37.921875 C 53.226562 37.835938 53.15625 37.75 53.09375 37.664062 C 51.851562 36.078125 50.78125 34.367188 49.882812 32.578125 C 50.140625 34.5625 49.765625 36.96875 49.117188 38.515625 C 48.390625 40.273438 47.023438 41.757812 45.8125 43.289062 C 44.367188 45.117188 41.398438 44.3125 41.140625 42 C 41.140625 41.984375 41.140625 41.960938 41.125 41.929688 C 41.3125 41.828125 41.484375 41.726562 41.65625 41.609375 C 42.632812 40.960938 42.296875 39.445312 41.125 39.265625 L 41.09375 39.265625 C 41.164062 38.625 41.28125 37.976562 41.4375 37.359375 C 39.890625 31.375 43.234375 29.1875 48 29.09375 C 48.109375 29.039062 48.210938 28.992188 48.320312 28.9375 C 47.828125 27.585938 47.445312 26.1875 47.15625 24.773438 C 46.90625 23.523438 46.726562 22.257812 46.625 20.992188 C 46.492188 19.382812 46.507812 17.78125 46.648438 16.179688 L 46.632812 16.242188 C 46.289062 17.992188 45.335938 19.640625 43.953125 20.78125 C 41.882812 22.484375 38.960938 23.109375 36.734375 24.46875 C 35.664062 25.117188 34.289062 24.28125 34.476562 23.03125 L 34.484375 22.976562 C 34.8125 22.828125 35.140625 22.6875 35.453125 22.507812 C 35.632812 22.40625 35.8125 22.296875 35.984375 22.179688 C 36.960938 21.539062 36.625 20.007812 35.46875 19.835938 L 35.4375 19.835938 C 35.421875 19.835938 35.398438 19.835938 35.382812 19.820312 C 35.953125 18.46875 36.742188 17.21875 37.734375 16.125 C 38.703125 10.90625 42.851562 10.40625 47.296875 11.929688 C 47.78125 9.8125 48.5 7.742188 49.40625 5.773438 L 56.945312 5.773438 C 56.96875 5.851562 56.992188 5.945312 57.015625 6.03125 C 56.328125 5.992188 55.625 6.03125 54.9375 6.164062 C 55.492188 6.84375 56.054688 7.539062 56.617188 8.21875 C 56.625 8.226562 56.632812 8.242188 56.65625 8.257812 C 56.945312 8.617188 57.226562 8.960938 57.5 9.304688 C 57.53125 10.382812 57.40625 11.453125 57.148438 12.5 Z M 57.148438 12.5 "/>
<path style=" stroke:none;fill-rule:nonzero;fill:rgb(80%,80%,80%);fill-opacity:1;" d="M 265.539062 5.75 C 265.539062 5.476562 265.3125 5.257812 265.039062 5.257812 L 35.03125 5.257812 C 34.75 5.257812 34.53125 5.476562 34.53125 5.75 C 34.53125 6.03125 34.75 6.25 35.03125 6.25 L 265.039062 6.25 C 265.304688 6.25 265.539062 6.03125 265.539062 5.75 Z M 265.539062 5.75 "/>
</g>
</svg>
