<?xml version="1.0" encoding="UTF-8"?>
<svg xmlns="http://www.w3.org/2000/svg" xmlns:xlink="http://www.w3.org/1999/xlink" width="600px" height="100px" viewBox="0 0 600 100" version="1.1">
<g id="surface1">
<path style=" stroke:none;fill-rule:nonzero;fill:rgb(94.901961%,94.901961%,94.901961%);fill-opacity:1;" d="M 114.296875 24.996094 C 112.566406 24.902344 111.621094 27.027344 112.933594 28.28125 L 113.0625 28.792969 C 113.046875 28.839844 113.027344 28.871094 113.003906 28.910156 C 111.269531 33.066406 105.355469 33.050781 103.605469 28.871094 C 102.058594 25.160156 100.113281 21.464844 99.621094 17.550781 C 99.410156 15.832031 99.503906 14.078125 99.902344 12.375 C 96.296875 20.246094 94.390625 28.839844 94.390625 37.464844 C 94.390625 39.640625 94.511719 41.808594 94.753906 43.972656 C 94.957031 45.761719 95.230469 47.5 95.589844 49.265625 C 97.5 58.691406 101.6875 67.660156 107.703125 75.160156 C 110.589844 76.753906 113.003906 79.230469 114.472656 82.1875 C 114.984375 83.246094 115.40625 84.394531 115.605469 85.566406 C 115.292969 85.519531 114.347656 90.542969 114.609375 90.859375 C 114.15625 91.546875 113.316406 91.902344 112.824219 92.582031 C 110.332031 95.964844 106.886719 95.363281 105.105469 90.769531 C 101.261719 88.828125 101.230469 85.628906 103.582031 82.558594 C 105.097656 80.59375 105.28125 77.9375 106.589844 75.84375 C 106.453125 75.667969 106.3125 75.503906 106.183594 75.324219 C 103.699219 72.160156 101.566406 68.730469 99.761719 65.152344 C 100.277344 69.128906 99.527344 73.941406 98.234375 77.027344 C 96.777344 80.550781 94.042969 83.515625 91.628906 86.578125 C 88.738281 90.238281 82.792969 88.628906 82.28125 83.996094 C 82.28125 83.964844 82.28125 83.917969 82.253906 83.855469 C 82.621094 83.660156 82.96875 83.449219 83.308594 83.222656 C 85.265625 81.921875 84.597656 78.890625 82.253906 78.535156 L 82.191406 78.535156 C 82.332031 77.25 82.558594 75.957031 82.875 74.714844 C 79.78125 62.75 86.464844 58.375 96 58.191406 C 96.222656 58.074219 96.417969 57.984375 96.636719 57.875 C 95.660156 55.167969 94.886719 52.378906 94.3125 49.542969 C 93.8125 47.046875 93.449219 44.515625 93.246094 41.984375 C 92.988281 38.769531 93.015625 35.558594 93.292969 32.363281 L 93.269531 32.480469 C 92.574219 35.988281 90.675781 39.285156 87.902344 41.5625 C 83.765625 44.972656 77.917969 46.21875 73.46875 48.933594 C 71.332031 50.234375 68.578125 48.5625 68.953125 46.0625 L 68.972656 45.949219 C 69.628906 45.660156 70.277344 45.375 70.90625 45.011719 C 71.269531 44.808594 71.625 44.597656 71.96875 44.355469 C 73.925781 43.078125 73.25 40.015625 70.933594 39.667969 L 70.875 39.667969 C 70.839844 39.667969 70.792969 39.667969 70.761719 39.640625 C 71.90625 36.9375 73.488281 34.4375 75.472656 32.253906 C 77.410156 21.808594 85.699219 20.816406 94.59375 23.863281 C 95.566406 19.625 97 15.484375 98.808594 11.546875 L 113.886719 11.546875 C 113.9375 11.699219 113.980469 11.890625 114.03125 12.058594 C 112.65625 11.980469 111.246094 12.058594 109.878906 12.324219 C 110.988281 13.683594 112.113281 15.078125 113.230469 16.4375 C 113.25 16.457031 113.261719 16.488281 113.3125 16.515625 C 113.886719 17.234375 114.457031 17.921875 115.003906 18.609375 C 115.066406 20.769531 114.808594 22.910156 114.296875 24.996094 Z M 114.296875 24.996094 "/>
<path style=" stroke:none;fill-rule:nonzero;fill:rgb(80%,80%,80%);fill-opacity:1;" d="M 531.074219 11.5 C 531.074219 10.953125 530.625 10.511719 530.074219 10.511719 L 70.0625 10.511719 C 69.5 10.511719 69.066406 10.953125 69.066406 11.5 C 69.066406 12.058594 69.5 12.5 70.0625 12.5 L 530.074219 12.5 C 530.613281 12.5 531.074219 12.058594 531.074219 11.5 Z M 531.074219 11.5 "/>
</g>
</svg>
