<?xml version="1.0" encoding="UTF-8"?>
<svg xmlns="http://www.w3.org/2000/svg" xmlns:xlink="http://www.w3.org/1999/xlink" width="300px" height="279px" viewBox="0 0 299 279" version="1.1">
<g id="surface1">
<path style=" stroke:none;fill-rule:nonzero;fill:rgb(94.901961%,94.901961%,94.901961%);fill-opacity:1;" d="M 201.476562 197.960938 L 94.253906 197.960938 C 85.242188 197.960938 77.910156 190.617188 77.910156 181.585938 L 77.910156 74.152344 C 77.910156 65.121094 85.242188 57.777344 94.253906 57.777344 L 201.476562 57.777344 C 210.492188 57.777344 217.824219 65.121094 217.824219 74.152344 L 217.824219 181.585938 C 217.824219 190.617188 210.492188 197.960938 201.476562 197.960938 Z M 94.253906 60.394531 C 86.671875 60.394531 80.527344 66.554688 80.527344 74.152344 L 80.527344 181.585938 C 80.527344 189.183594 86.671875 195.34375 94.253906 195.34375 L 169.363281 195.34375 C 194.683594 195.34375 215.207031 174.777344 215.207031 149.40625 L 215.207031 74.152344 C 215.207031 66.554688 209.058594 60.394531 201.476562 60.394531 Z M 94.253906 60.394531 "/>
<path style=" stroke:none;fill-rule:nonzero;fill:rgb(94.901961%,94.901961%,94.901961%);fill-opacity:1;" d="M 105.816406 71.566406 C 100.738281 71.566406 96.613281 75.703125 96.613281 80.789062 L 96.613281 95.222656 C 96.613281 100.308594 100.738281 104.445312 105.816406 104.445312 L 120.21875 104.445312 C 125.292969 104.445312 129.421875 100.308594 129.421875 95.222656 L 129.421875 80.789062 C 129.421875 75.703125 125.292969 71.566406 120.21875 71.566406 Z M 105.816406 71.566406 "/>
<path style=" stroke:none;fill-rule:nonzero;fill:rgb(94.901961%,94.901961%,94.901961%);fill-opacity:1;" d="M 105.816406 112.199219 C 100.738281 112.199219 96.613281 116.335938 96.613281 121.421875 L 96.613281 135.851562 C 96.613281 140.9375 100.738281 145.074219 105.816406 145.074219 L 120.21875 145.074219 C 125.292969 145.074219 129.421875 140.9375 129.421875 135.851562 L 129.421875 121.421875 C 129.421875 116.335938 125.292969 112.199219 120.21875 112.199219 Z M 105.816406 112.199219 "/>
<path style=" stroke:none;fill-rule:nonzero;fill:rgb(94.901961%,94.901961%,94.901961%);fill-opacity:1;" d="M 105.816406 152.832031 C 100.738281 152.832031 96.613281 156.964844 96.613281 162.050781 L 96.613281 176.484375 C 96.613281 181.570312 100.738281 185.707031 105.816406 185.707031 L 120.21875 185.707031 C 125.292969 185.707031 129.421875 181.570312 129.421875 176.484375 L 129.421875 162.050781 C 129.421875 156.964844 125.292969 152.832031 120.21875 152.832031 Z M 105.816406 152.832031 "/>
<path style=" stroke:none;fill-rule:nonzero;fill:rgb(42.352941%,38.823529%,100%);fill-opacity:1;" d="M 115.367188 36.355469 C 108.972656 36.355469 103.769531 41.566406 103.769531 47.972656 L 103.769531 66.160156 C 103.769531 72.566406 108.972656 77.777344 115.367188 77.777344 L 133.519531 77.777344 C 139.914062 77.777344 145.113281 72.566406 145.113281 66.160156 L 145.113281 47.972656 C 145.113281 41.566406 139.910156 36.355469 133.519531 36.355469 Z M 115.367188 36.355469 "/>
<path style=" stroke:none;fill-rule:nonzero;fill:rgb(42.352941%,38.823529%,100%);fill-opacity:1;" d="M 175.125 87.175781 C 168.730469 87.175781 163.527344 92.390625 163.527344 98.796875 L 163.527344 116.980469 C 163.527344 123.390625 168.730469 128.601562 175.125 128.601562 L 193.273438 128.601562 C 199.667969 128.601562 204.871094 123.390625 204.871094 116.980469 L 204.871094 98.796875 C 204.871094 92.390625 199.667969 87.175781 193.273438 87.175781 Z M 175.125 87.175781 "/>
<path style=" stroke:none;fill-rule:nonzero;fill:rgb(62.745098%,38.039216%,41.568627%);fill-opacity:1;" d="M 149.144531 270.226562 L 145.457031 270.195312 L 143.824219 255.613281 L 149.265625 255.660156 Z M 149.144531 270.226562 "/>
<path style=" stroke:none;fill-rule:nonzero;fill:rgb(18.431373%,18.039216%,25.490196%);fill-opacity:1;" d="M 137.332031 276.101562 C 137.324219 277.011719 138.058594 277.761719 138.96875 277.769531 L 146.300781 277.832031 L 147.582031 275.222656 L 148.054688 277.84375 L 150.820312 277.867188 L 150.121094 268.523438 L 149.160156 268.460938 L 145.234375 268.1875 L 143.96875 268.105469 L 143.945312 270.75 L 138.054688 274.75 C 137.609375 275.054688 137.339844 275.5625 137.332031 276.101562 Z M 137.332031 276.101562 "/>
<path style=" stroke:none;fill-rule:nonzero;fill:rgb(62.745098%,38.039216%,41.568627%);fill-opacity:1;" d="M 167.90625 270.226562 L 164.21875 270.195312 L 162.585938 255.613281 L 168.027344 255.660156 Z M 167.90625 270.226562 "/>
<path style=" stroke:none;fill-rule:nonzero;fill:rgb(18.431373%,18.039216%,25.490196%);fill-opacity:1;" d="M 156.09375 276.101562 C 156.085938 277.011719 156.816406 277.761719 157.730469 277.769531 L 165.058594 277.832031 L 166.34375 275.222656 L 166.816406 277.84375 L 169.582031 277.867188 L 168.882812 268.523438 L 167.921875 268.460938 L 163.996094 268.1875 L 162.726562 268.105469 L 162.707031 270.75 L 156.816406 274.75 C 156.367188 275.054688 156.097656 275.5625 156.09375 276.101562 Z M 156.09375 276.101562 "/>
<path style=" stroke:none;fill-rule:nonzero;fill:rgb(18.431373%,18.039216%,25.490196%);fill-opacity:1;" d="M 134.675781 152.328125 L 149.621094 152.800781 L 163.78125 155.953125 C 163.78125 155.953125 162.367188 157.6875 167.085938 162.417969 C 167.085938 162.417969 173.378906 173.453125 168.972656 184.171875 L 167.085938 227.050781 C 167.085938 227.050781 172.589844 257.273438 168.382812 266.894531 L 162.824219 267.242188 L 153.417969 227.398438 L 148.835938 184.484375 L 146.632812 226.734375 C 146.632812 226.734375 155.058594 255.730469 149.738281 267.242188 L 143.71875 266.894531 L 133.417969 226.734375 C 133.417969 226.734375 129.011719 180.386719 129.640625 171.558594 C 130.269531 162.730469 134.675781 152.328125 134.675781 152.328125 Z M 134.675781 152.328125 "/>
<path style=" stroke:none;fill-rule:nonzero;fill:rgb(62.745098%,38.039216%,41.568627%);fill-opacity:1;" d="M 184.867188 84.574219 C 182.824219 85.105469 181.597656 87.191406 182.125 89.242188 C 182.371094 90.179688 182.941406 90.941406 183.683594 91.445312 L 183.683594 91.449219 L 183.394531 98.484375 L 188.765625 100.976562 L 189.195312 90.152344 L 189.15625 90.152344 C 189.621094 89.320312 189.785156 88.316406 189.527344 87.320312 C 188.996094 85.273438 186.910156 84.042969 184.867188 84.574219 Z M 184.867188 84.574219 "/>
<path style=" stroke:none;fill-rule:nonzero;fill:rgb(24.705882%,23.921569%,33.72549%);fill-opacity:1;" d="M 154.839844 109.679688 C 153.710938 108.558594 153.058594 107.039062 153.03125 105.386719 C 153 103.167969 154.109375 101.15625 156 100.003906 C 158.175781 98.675781 160.898438 98.808594 162.933594 100.34375 L 179.804688 113.074219 L 182.808594 94.738281 L 189.265625 96.820312 L 187.722656 120.695312 C 187.617188 122.363281 186.675781 123.835938 185.203125 124.628906 C 183.734375 125.425781 181.988281 125.40625 180.539062 124.578125 L 156.15625 110.679688 C 155.667969 110.398438 155.226562 110.0625 154.839844 109.679688 Z M 154.839844 109.679688 "/>
<path style=" stroke:none;fill-rule:nonzero;fill:rgb(62.745098%,38.039216%,41.568627%);fill-opacity:1;" d="M 129.117188 74.316406 C 130.195312 76.136719 129.597656 78.484375 127.785156 79.566406 C 126.953125 80.0625 126.011719 80.199219 125.128906 80.035156 L 125.125 80.039062 L 120.386719 85.238281 L 114.824219 83.21875 L 122.125 75.226562 L 122.148438 75.253906 C 122.402344 74.335938 122.996094 73.507812 123.878906 72.984375 C 125.691406 71.902344 128.039062 72.5 129.117188 74.316406 Z M 129.117188 74.316406 "/>
<path style=" stroke:none;fill-rule:nonzero;fill:rgb(24.705882%,23.921569%,33.72549%);fill-opacity:1;" d="M 131.160156 113.109375 L 104.082031 105.78125 C 102.46875 105.34375 101.214844 104.128906 100.730469 102.527344 C 100.246094 100.925781 100.609375 99.214844 101.707031 97.953125 L 117.390625 79.914062 L 123.433594 82.988281 L 112.6875 98.128906 L 133.609375 100.992188 C 136.136719 101.335938 138.164062 103.164062 138.773438 105.640625 C 139.308594 107.792969 138.679688 110.003906 137.097656 111.554688 C 135.921875 112.710938 134.386719 113.328125 132.796875 113.328125 C 132.253906 113.328125 131.707031 113.257812 131.160156 113.109375 Z M 131.160156 113.109375 "/>
<path style=" stroke:none;fill-rule:nonzero;fill:rgb(24.705882%,23.921569%,33.72549%);fill-opacity:1;" d="M 169.769531 158.636719 L 131.902344 160.375 C 130.859375 158.792969 131.144531 156.414062 132.597656 153.433594 C 138.097656 142.183594 133.921875 120.898438 131.113281 109.816406 C 130.324219 106.707031 132.441406 103.617188 135.625 103.296875 L 139.195312 102.941406 L 142.496094 92.84375 L 154.054688 92.84375 L 158.851562 98.335938 L 166.992188 103.289062 C 165.507812 118.578125 159.195312 140.164062 168.1875 150.992188 C 170.15625 153.359375 170.714844 155.917969 169.769531 158.636719 Z M 169.769531 158.636719 "/>
<path style=" stroke:none;fill-rule:nonzero;fill:rgb(62.745098%,38.039216%,41.568627%);fill-opacity:1;" d="M 158.066406 81.796875 C 158.066406 88.027344 153.023438 93.078125 146.808594 93.078125 C 140.589844 93.078125 135.546875 88.027344 135.546875 81.796875 C 135.546875 75.566406 140.589844 70.515625 146.808594 70.515625 C 153.023438 70.515625 158.066406 75.566406 158.066406 81.796875 Z M 158.066406 81.796875 "/>
<path style=" stroke:none;fill-rule:nonzero;fill:rgb(18.431373%,18.039216%,25.490196%);fill-opacity:1;" d="M 159.546875 74.574219 C 161.113281 68.851562 144.039062 63.945312 140.722656 68.554688 C 140.261719 67.898438 138.554688 67.5 137.773438 67.703125 C 136.992188 67.902344 136.335938 68.40625 135.691406 68.890625 C 134.808594 69.570312 133.894531 70.273438 133.355469 71.25 C 132.808594 72.222656 132.722656 73.550781 133.457031 74.394531 C 134.039062 75.066406 135.0625 78.632812 135.9375 78.808594 C 136.546875 78.933594 137.058594 79.035156 137.5 79.105469 C 137.894531 78.53125 138.894531 77.8125 138.824219 77.113281 C 139.417969 77.507812 139.199219 78.203125 139.082031 78.910156 C 138.683594 81.269531 129.703125 99.527344 134.847656 94.148438 C 135.355469 94.449219 135.984375 94.730469 136.710938 94.988281 C 137.941406 93.125 138.953125 90.929688 139.621094 88.636719 L 139.625 88.679688 C 139.855469 90.671875 141.308594 92.308594 143.234375 92.867188 C 150.953125 95.109375 157.199219 91.820312 159.347656 85.890625 C 158.5625 84.289062 158.21875 84.464844 158.289062 84.417969 C 159.269531 83.753906 160.621094 84.1875 161.042969 85.296875 C 161.167969 85.621094 161.277344 85.902344 161.378906 86.113281 C 162.496094 82.101562 163.828125 82.679688 159.546875 74.574219 Z M 159.546875 74.574219 "/>
<path style=" stroke:none;fill-rule:nonzero;fill:rgb(18.431373%,18.039216%,25.490196%);fill-opacity:1;" d="M 154.222656 70.425781 L 153.433594 66.382812 C 153.367188 66.042969 153.304688 65.675781 153.457031 65.367188 C 153.652344 64.96875 154.15625 64.800781 154.597656 64.867188 C 155.035156 64.929688 155.363281 65.332031 155.800781 65.410156 C 157.320312 65.675781 159.328125 64.175781 159.871094 67.976562 C 160.097656 69.5625 162.625 69.730469 163.46875 71.09375 C 164.3125 72.453125 164.414062 74.417969 163.265625 75.53125 C 162.34375 76.417969 160.867188 76.519531 159.675781 76.066406 C 158.480469 75.613281 157.523438 74.695312 156.683594 73.730469 C 155.847656 72.765625 155.089844 71.71875 154.125 70.878906 "/>
<path style=" stroke:none;fill-rule:nonzero;fill:rgb(42.352941%,38.823529%,100%);fill-opacity:1;" d="M 160.148438 76.570312 C 157.066406 76.136719 154.96875 75.015625 153.90625 73.230469 C 152.519531 70.898438 153.449219 68.328125 153.488281 68.21875 L 154.140625 68.464844 C 154.132812 68.488281 153.289062 70.839844 154.507812 72.882812 C 155.457031 74.46875 157.386719 75.480469 160.246094 75.878906 Z M 160.148438 76.570312 "/>
<path style=" stroke:none;fill-rule:nonzero;fill:rgb(42.352941%,38.823529%,100%);fill-opacity:1;" d="M 174.605469 32.917969 C 165.550781 32.917969 158.179688 25.535156 158.179688 16.457031 C 158.179688 7.382812 165.550781 0 174.605469 0 C 183.664062 0 191.03125 7.382812 191.03125 16.457031 C 191.03125 25.535156 183.664062 32.917969 174.605469 32.917969 Z M 174.605469 6.582031 C 169.171875 6.582031 164.75 11.011719 164.75 16.457031 C 164.75 21.90625 169.171875 26.335938 174.605469 26.335938 C 180.042969 26.335938 184.460938 21.90625 184.460938 16.457031 C 184.460938 11.011719 180.042969 6.582031 174.605469 6.582031 Z M 174.605469 6.582031 "/>
<path style=" stroke:none;fill-rule:nonzero;fill:rgb(42.352941%,38.823529%,100%);fill-opacity:1;" d="M 199.878906 44.101562 C 199.074219 44.101562 198.269531 43.808594 197.632812 43.210938 L 182.214844 28.734375 C 180.890625 27.492188 180.824219 25.410156 182.066406 24.085938 C 183.304688 22.753906 185.382812 22.6875 186.707031 23.933594 L 202.125 38.410156 C 203.449219 39.652344 203.519531 41.734375 202.277344 43.0625 C 201.628906 43.753906 200.753906 44.101562 199.878906 44.101562 Z M 199.878906 44.101562 "/>
<path style=" stroke:none;fill-rule:nonzero;fill:rgb(94.901961%,94.901961%,94.901961%);fill-opacity:1;" d="M 269.558594 269.859375 C 270.675781 269.929688 271.292969 268.539062 270.449219 267.726562 L 270.367188 267.394531 C 270.375 267.367188 270.386719 267.339844 270.398438 267.3125 C 271.527344 264.613281 275.355469 264.632812 276.476562 267.335938 C 277.472656 269.734375 278.738281 272.136719 279.046875 274.671875 C 279.1875 275.792969 279.125 276.933594 278.878906 278.03125 C 281.207031 272.933594 282.433594 267.367188 282.433594 261.769531 C 282.433594 260.363281 282.355469 258.957031 282.199219 257.550781 C 282.070312 256.40625 281.890625 255.265625 281.660156 254.132812 C 280.414062 248.023438 277.714844 242.207031 273.820312 237.34375 C 271.949219 236.320312 270.386719 234.71875 269.445312 232.796875 C 269.105469 232.105469 268.839844 231.359375 268.714844 230.597656 C 268.929688 230.628906 269.519531 227.375 269.359375 227.175781 C 269.65625 226.726562 270.1875 226.5 270.511719 226.0625 C 272.121094 223.871094 274.34375 224.253906 275.503906 227.230469 C 277.980469 228.480469 278.003906 230.558594 276.484375 232.558594 C 275.519531 233.828125 275.386719 235.550781 274.535156 236.910156 C 274.625 237.023438 274.714844 237.132812 274.800781 237.242188 C 276.402344 239.300781 277.789062 241.511719 278.953125 243.835938 C 278.625 241.253906 279.113281 238.144531 279.941406 236.136719 C 280.886719 233.851562 282.660156 231.929688 284.21875 229.953125 C 286.09375 227.582031 289.9375 228.617188 290.265625 231.625 C 290.269531 231.652344 290.273438 231.683594 290.277344 231.710938 C 290.042969 231.84375 289.816406 231.980469 289.59375 232.128906 C 288.332031 232.96875 288.769531 234.933594 290.265625 235.164062 L 290.300781 235.167969 C 290.214844 236.003906 290.074219 236.835938 289.863281 237.648438 C 291.867188 245.40625 287.542969 248.230469 281.375 248.355469 C 281.238281 248.425781 281.105469 248.496094 280.96875 248.5625 C 281.59375 250.328125 282.09375 252.136719 282.464844 253.96875 C 282.796875 255.589844 283.027344 257.226562 283.15625 258.871094 C 283.316406 260.945312 283.300781 263.03125 283.128906 265.101562 L 283.136719 265.03125 C 283.582031 262.75 284.816406 260.617188 286.613281 259.140625 C 289.285156 256.941406 293.066406 256.128906 295.949219 254.359375 C 297.339844 253.507812 299.117188 254.609375 298.875 256.222656 L 298.863281 256.300781 C 298.433594 256.476562 298.015625 256.675781 297.609375 256.90625 C 297.378906 257.035156 297.152344 257.175781 296.929688 257.320312 C 295.664062 258.160156 296.101562 260.125 297.601562 260.355469 L 297.632812 260.363281 C 297.660156 260.367188 297.679688 260.371094 297.703125 260.371094 C 296.96875 262.125 295.941406 263.753906 294.65625 265.15625 C 293.402344 271.925781 288.027344 272.570312 282.277344 270.597656 L 282.273438 270.597656 C 281.648438 273.339844 280.726562 276.019531 279.546875 278.574219 L 269.804688 278.574219 C 269.769531 278.464844 269.738281 278.355469 269.707031 278.246094 C 270.609375 278.300781 271.515625 278.25 272.402344 278.085938 C 271.679688 277.195312 270.957031 276.300781 270.234375 275.410156 C 270.214844 275.394531 270.203125 275.375 270.1875 275.359375 C 269.820312 274.90625 269.453125 274.453125 269.085938 274 L 269.085938 273.996094 C 269.0625 272.601562 269.230469 271.210938 269.558594 269.859375 Z M 269.558594 269.859375 "/>
<path style=" stroke:none;fill-rule:nonzero;fill:rgb(80%,80%,80%);fill-opacity:1;" d="M 0 278.605469 C 0 278.960938 0.285156 279.25 0.644531 279.25 L 298.179688 279.25 C 298.535156 279.25 298.820312 278.960938 298.820312 278.605469 C 298.820312 278.246094 298.535156 277.960938 298.179688 277.960938 L 0.644531 277.960938 C 0.285156 277.960938 0 278.246094 0 278.605469 Z M 0 278.605469 "/>
</g>
</svg>
