<?xml version="1.0" encoding="UTF-8"?>
<svg xmlns="http://www.w3.org/2000/svg" xmlns:xlink="http://www.w3.org/1999/xlink" width="300px" height="201px" viewBox="0 0 299 201" version="1.1">
<g id="surface1">
<path style=" stroke:none;fill-rule:nonzero;fill:rgb(94.901961%,94.901961%,94.901961%);fill-opacity:1;" d="M 52.980469 155.140625 C 52.558594 154.425781 50.726562 155.191406 50.390625 154.539062 C 50.058594 153.894531 51.757812 152.910156 52.726562 150.65625 C 52.902344 150.25 54.007812 147.691406 53.1875 146.902344 C 51.640625 145.40625 44.554688 151.582031 42.074219 149.5625 C 41.53125 149.117188 41.152344 148.230469 39.503906 146.792969 C 38.847656 146.222656 38.453125 145.964844 38.070312 146.058594 C 37.523438 146.195312 37.480469 146.925781 36.898438 148.363281 C 36.023438 150.519531 35.507812 150.386719 34.996094 152.105469 C 34.617188 153.382812 34.703125 154.125 34.257812 154.269531 C 33.628906 154.472656 33.046875 153.121094 32.25 153.242188 C 31.433594 153.363281 30.941406 154.941406 30.785156 156.121094 C 30.496094 158.335938 31.304688 159.796875 31.753906 161.332031 C 32.242188 163 32.53125 165.539062 31.40625 169.132812 L 20.246094 200.675781 C 22.710938 194.203125 29.84375 176.460938 32.839844 169.867188 C 33.703125 167.964844 34.660156 166.035156 36.621094 165.273438 C 38.511719 164.539062 41.101562 164.976562 44.410156 164.179688 C 44.796875 164.085938 45.867188 163.8125 46.003906 163.179688 C 46.113281 162.65625 45.484375 162.363281 45.582031 161.875 C 45.710938 161.21875 46.949219 161.210938 48.472656 160.453125 C 49.546875 159.917969 50.214844 159.28125 50.792969 158.734375 C 50.964844 158.570312 53.542969 156.09375 52.980469 155.140625 Z M 52.980469 155.140625 "/>
<path style=" stroke:none;fill-rule:nonzero;fill:rgb(94.901961%,94.901961%,94.901961%);fill-opacity:1;" d="M 9.085938 171.742188 C 8.613281 171.746094 8.460938 172.867188 8.046875 172.84375 C 7.632812 172.824219 7.640625 171.703125 6.820312 170.574219 C 6.671875 170.371094 5.738281 169.089844 5.117188 169.265625 C 3.9375 169.59375 4.914062 174.867188 3.210938 175.503906 C 2.835938 175.644531 2.292969 175.574219 1.113281 175.972656 C 0.644531 176.128906 0.402344 176.25 0.339844 176.46875 C 0.25 176.773438 0.59375 177.007812 1.128906 177.707031 C 1.929688 178.761719 1.71875 178.976562 2.410156 179.726562 C 2.925781 180.277344 3.316406 180.449219 3.257812 180.710938 C 3.175781 181.082031 2.34375 180.976562 2.175781 181.40625 C 2 181.839844 2.628906 182.539062 3.160156 182.957031 C 4.160156 183.738281 5.109375 183.761719 5.988281 183.984375 C 6.945312 184.222656 8.273438 184.8125 9.707031 186.40625 L 21.914062 201 C 19.460938 197.921875 12.839844 189.289062 10.476562 185.910156 C 9.796875 184.9375 9.128906 183.910156 9.320312 182.722656 C 9.507812 181.582031 10.46875 180.429688 11.03125 178.570312 C 11.097656 178.355469 11.273438 177.75 11.003906 177.5 C 10.78125 177.292969 10.457031 177.519531 10.242188 177.332031 C 9.960938 177.078125 10.3125 176.464844 10.382812 175.496094 C 10.429688 174.8125 10.3125 174.300781 10.210938 173.859375 C 10.183594 173.726562 9.714844 171.742188 9.085938 171.742188 Z M 9.085938 171.742188 "/>
<path style=" stroke:none;fill-rule:nonzero;fill:rgb(94.901961%,94.901961%,94.901961%);fill-opacity:1;" d="M 18.5 173.863281 L 18.214844 171.316406 L 18.347656 171.125 C 18.945312 170.230469 19.253906 169.359375 19.257812 168.53125 C 19.257812 168.402344 19.25 168.269531 19.246094 168.136719 C 19.222656 167.605469 19.191406 166.941406 19.535156 166.171875 C 19.726562 165.746094 20.265625 164.75 21.078125 164.875 C 21.296875 164.90625 21.464844 165.003906 21.589844 165.125 C 21.605469 165.09375 21.625 165.0625 21.644531 165.03125 C 21.898438 164.644531 22.101562 164.480469 22.292969 164.320312 C 22.441406 164.195312 22.59375 164.070312 22.835938 163.769531 C 22.941406 163.636719 23.023438 163.523438 23.089844 163.425781 C 23.300781 163.132812 23.578125 162.78125 24.058594 162.785156 C 24.578125 162.8125 24.847656 163.242188 25.027344 163.523438 C 25.347656 164.03125 25.492188 164.398438 25.589844 164.640625 C 25.625 164.726562 25.664062 164.828125 25.683594 164.859375 C 25.851562 165.105469 27.207031 164.875 27.71875 164.789062 C 28.863281 164.597656 29.855469 164.433594 30.265625 165.15625 C 30.558594 165.675781 30.339844 166.363281 29.597656 167.253906 C 29.367188 167.527344 29.121094 167.738281 28.902344 167.902344 C 29.085938 168.011719 29.246094 168.179688 29.3125 168.4375 C 29.464844 169.054688 28.9375 169.675781 27.742188 170.28125 C 27.441406 170.429688 27.042969 170.632812 26.480469 170.730469 C 26.21875 170.773438 25.980469 170.785156 25.777344 170.792969 C 25.773438 170.910156 25.746094 171.039062 25.671875 171.167969 C 25.464844 171.558594 25.027344 171.742188 24.367188 171.699219 C 23.640625 171.660156 23.042969 171.519531 22.515625 171.398438 C 22.054688 171.292969 21.660156 171.203125 21.347656 171.222656 C 20.769531 171.269531 20.324219 171.734375 19.804688 172.335938 Z M 18.5 173.863281 "/>
<path style=" stroke:none;fill-rule:nonzero;fill:rgb(94.901961%,94.901961%,94.901961%);fill-opacity:1;" d="M 19.820312 158.699219 L 17.4375 159.621094 L 17.21875 159.546875 C 16.203125 159.1875 15.285156 159.113281 14.488281 159.320312 C 14.359375 159.351562 14.234375 159.390625 14.105469 159.429688 C 13.601562 159.589844 12.972656 159.785156 12.144531 159.648438 C 11.679688 159.570312 10.585938 159.296875 10.496094 158.480469 C 10.472656 158.257812 10.527344 158.070312 10.609375 157.921875 C 10.574219 157.910156 10.542969 157.898438 10.507812 157.886719 C 10.070312 157.738281 9.859375 157.585938 9.65625 157.441406 C 9.5 157.328125 9.335938 157.210938 8.988281 157.054688 C 8.832031 156.984375 8.703125 156.933594 8.589844 156.894531 C 8.253906 156.761719 7.847656 156.585938 7.730469 156.113281 C 7.621094 155.605469 7.96875 155.234375 8.195312 154.988281 C 8.601562 154.546875 8.917969 154.316406 9.125 154.160156 C 9.203125 154.105469 9.289062 154.039062 9.3125 154.011719 C 9.507812 153.789062 8.941406 152.53125 8.734375 152.058594 C 8.257812 150.992188 7.84375 150.074219 8.441406 149.492188 C 8.867188 149.074219 9.585938 149.113281 10.628906 149.605469 C 10.953125 149.761719 11.21875 149.945312 11.433594 150.117188 C 11.492188 149.914062 11.613281 149.714844 11.847656 149.585938 C 12.402344 149.277344 13.132812 149.632812 14.019531 150.640625 C 14.242188 150.890625 14.535156 151.230469 14.773438 151.75 C 14.882812 151.992188 14.953125 152.222656 15.011719 152.417969 C 15.125 152.390625 15.257812 152.386719 15.402344 152.421875 C 15.828125 152.527344 16.117188 152.90625 16.242188 153.558594 C 16.390625 154.269531 16.40625 154.886719 16.421875 155.429688 C 16.4375 155.902344 16.453125 156.308594 16.550781 156.605469 C 16.742188 157.15625 17.304688 157.46875 18.015625 157.824219 Z M 19.820312 158.699219 "/>
<path style=" stroke:none;fill-rule:nonzero;fill:rgb(94.901961%,94.901961%,94.901961%);fill-opacity:1;" d="M 18.5 151.199219 L 18.214844 148.652344 L 18.347656 148.457031 C 18.945312 147.566406 19.253906 146.695312 19.257812 145.867188 C 19.257812 145.734375 19.25 145.601562 19.246094 145.46875 C 19.222656 144.9375 19.191406 144.277344 19.535156 143.507812 C 19.726562 143.078125 20.265625 142.085938 21.078125 142.207031 C 21.296875 142.238281 21.464844 142.339844 21.589844 142.457031 C 21.605469 142.425781 21.625 142.398438 21.644531 142.367188 C 21.898438 141.980469 22.101562 141.8125 22.292969 141.652344 C 22.441406 141.53125 22.59375 141.402344 22.835938 141.101562 C 22.941406 140.972656 23.023438 140.855469 23.089844 140.757812 C 23.300781 140.464844 23.578125 140.113281 24.058594 140.121094 C 24.578125 140.144531 24.847656 140.574219 25.027344 140.859375 C 25.347656 141.363281 25.492188 141.730469 25.589844 141.972656 C 25.625 142.0625 25.664062 142.160156 25.683594 142.191406 C 25.851562 142.4375 27.207031 142.207031 27.71875 142.125 C 28.863281 141.933594 29.855469 141.765625 30.265625 142.492188 C 30.558594 143.011719 30.339844 143.695312 29.597656 144.585938 C 29.367188 144.863281 29.121094 145.074219 28.902344 145.238281 C 29.085938 145.347656 29.246094 145.511719 29.3125 145.773438 C 29.464844 146.390625 28.9375 147.007812 27.742188 147.613281 C 27.441406 147.765625 27.042969 147.964844 26.480469 148.0625 C 26.21875 148.109375 25.980469 148.121094 25.777344 148.125 C 25.773438 148.246094 25.746094 148.371094 25.671875 148.503906 C 25.464844 148.890625 25.027344 149.074219 24.367188 149.03125 C 23.640625 148.992188 23.042969 148.855469 22.515625 148.730469 C 22.054688 148.625 21.660156 148.535156 21.347656 148.558594 C 20.769531 148.605469 20.324219 149.066406 19.804688 149.667969 Z M 18.5 151.199219 "/>
<path style=" stroke:none;fill-rule:nonzero;fill:rgb(94.901961%,94.901961%,94.901961%);fill-opacity:1;" d="M 21.097656 200.632812 L 20.566406 200.296875 L 20.4375 199.683594 L 20.566406 200.296875 L 19.945312 200.371094 C 19.933594 200.3125 19.902344 200.179688 19.851562 199.972656 C 19.574219 198.832031 18.726562 195.367188 18.019531 189.910156 C 17.527344 186.101562 17.25 182.183594 17.191406 178.265625 C 17.132812 174.34375 17.320312 171.375 17.46875 168.988281 C 17.578125 167.1875 17.714844 165.472656 17.847656 163.800781 C 18.203125 159.339844 18.539062 155.125 18.289062 150.460938 C 18.234375 149.417969 18.121094 147.25 16.855469 144.945312 C 16.125 143.605469 15.117188 142.417969 13.859375 141.414062 L 14.640625 140.429688 C 16.027344 141.539062 17.144531 142.855469 17.957031 144.339844 C 19.359375 146.898438 19.484375 149.261719 19.542969 150.394531 C 19.796875 155.144531 19.460938 159.398438 19.101562 163.902344 C 18.96875 165.566406 18.832031 167.273438 18.71875 169.066406 C 18.574219 171.429688 18.390625 174.375 18.445312 178.246094 C 18.503906 182.117188 18.777344 185.984375 19.265625 189.746094 C 19.960938 195.136719 20.796875 198.550781 21.070312 199.671875 C 21.214844 200.269531 21.246094 200.394531 21.097656 200.632812 Z M 21.097656 200.632812 "/>
<path style=" stroke:none;fill-rule:nonzero;fill:rgb(94.901961%,94.901961%,94.901961%);fill-opacity:1;" d="M 11.558594 143.417969 C 11.503906 143.417969 11.453125 143.414062 11.402344 143.410156 C 10.332031 143.355469 9.34375 142.710938 8.457031 141.503906 C 8.042969 140.9375 7.832031 140.289062 7.410156 138.996094 C 7.34375 138.796875 7.023438 137.785156 6.832031 136.394531 C 6.703125 135.484375 6.71875 135.105469 6.898438 134.769531 C 7.097656 134.394531 7.421875 134.136719 7.785156 133.960938 C 7.769531 133.839844 7.78125 133.714844 7.832031 133.589844 C 8.046875 133.0625 8.617188 133.132812 8.921875 133.164062 C 9.078125 133.183594 9.273438 133.210938 9.484375 133.199219 C 9.8125 133.183594 9.988281 133.085938 10.257812 132.9375 C 10.515625 132.796875 10.835938 132.621094 11.308594 132.523438 C 12.242188 132.328125 13.023438 132.59375 13.28125 132.679688 C 14.640625 133.132812 15.308594 134.195312 16.082031 135.417969 C 16.238281 135.664062 16.769531 136.5625 17.117188 137.789062 C 17.371094 138.671875 17.335938 139.066406 17.257812 139.359375 C 17.105469 139.960938 16.738281 140.304688 15.8125 141.066406 C 14.847656 141.859375 14.363281 142.257812 13.945312 142.5 C 12.976562 143.0625 12.367188 143.417969 11.558594 143.417969 Z M 11.558594 143.417969 "/>
<path style=" stroke:none;fill-rule:nonzero;fill:rgb(90.196078%,90.196078%,90.196078%);fill-opacity:1;" d="M 292.007812 200.058594 C 292.007812 200.292969 291.820312 200.480469 291.585938 200.480469 L 0 200.480469 L 0 199.636719 L 291.585938 199.636719 C 291.820312 199.636719 292.007812 199.828125 292.007812 200.058594 Z M 292.007812 200.058594 "/>
<path style=" stroke:none;fill-rule:nonzero;fill:rgb(62.745098%,38.039216%,41.568627%);fill-opacity:1;" d="M 207.832031 66.628906 C 207.832031 66.628906 192.136719 68.523438 194.78125 56.070312 C 197.429688 43.621094 212.441406 20.625 212.441406 20.625 L 220.960938 25.417969 L 211.179688 48.609375 L 215.390625 51.941406 Z M 207.832031 66.628906 "/>
<path style=" stroke:none;fill-rule:nonzero;fill:rgb(42.352941%,38.823529%,100%);fill-opacity:1;" d="M 259.265625 51.472656 L 257.054688 69.722656 L 201.632812 69.449219 L 212.765625 50.039062 Z M 259.265625 51.472656 "/>
<path style=" stroke:none;fill-rule:nonzero;fill:rgb(62.745098%,38.039216%,41.568627%);fill-opacity:1;" d="M 226.9375 9.011719 C 223.882812 6.816406 218.65625 8.890625 215.265625 13.640625 C 211.871094 18.394531 211.601562 24.027344 214.65625 26.222656 C 217.710938 28.417969 222.9375 26.34375 226.332031 21.59375 C 229.722656 16.839844 229.996094 11.207031 226.9375 9.011719 Z M 226.9375 9.011719 "/>
<path style=" stroke:none;fill-rule:nonzero;fill:rgb(24.705882%,23.921569%,33.72549%);fill-opacity:1;" d="M 253.9375 200.257812 L 253.9375 121.054688 L 257.339844 121.054688 L 257.339844 200.257812 Z M 253.9375 200.257812 "/>
<path style=" stroke:none;fill-rule:nonzero;fill:rgb(24.705882%,23.921569%,33.72549%);fill-opacity:1;" d="M 237.605469 200.257812 L 237.605469 121.054688 L 241.007812 121.054688 L 241.007812 200.257812 Z M 237.605469 200.257812 "/>
<path style=" stroke:none;fill-rule:nonzero;fill:rgb(90.196078%,90.196078%,90.196078%);fill-opacity:1;" d="M 146.070312 200.257812 L 146.070312 71.207031 L 149.472656 71.207031 L 149.472656 200.257812 Z M 146.070312 200.257812 "/>
<path style=" stroke:none;fill-rule:nonzero;fill:rgb(24.705882%,23.921569%,33.72549%);fill-opacity:1;" d="M 200.855469 200.257812 L 200.855469 121.054688 L 204.257812 121.054688 L 204.257812 200.257812 Z M 200.855469 200.257812 "/>
<path style=" stroke:none;fill-rule:nonzero;fill:rgb(24.705882%,23.921569%,33.72549%);fill-opacity:1;" d="M 187.832031 200.257812 L 187.832031 121.054688 L 191.234375 121.054688 L 191.234375 200.257812 Z M 187.832031 200.257812 "/>
<path style=" stroke:none;fill-rule:nonzero;fill:rgb(24.705882%,23.921569%,33.72549%);fill-opacity:1;" d="M 250.875 119.347656 L 185.164062 119.347656 L 172.558594 137.285156 L 237.945312 141.195312 Z M 250.875 119.347656 "/>
<path style=" stroke:none;fill-rule:nonzero;fill:rgb(62.745098%,38.039216%,41.568627%);fill-opacity:1;" d="M 130.550781 57.96875 L 130.851562 44.960938 L 91.191406 48.019531 L 90.988281 56.835938 Z M 130.550781 57.96875 "/>
<path style=" stroke:none;fill-rule:nonzero;fill:rgb(18.431373%,18.039216%,25.490196%);fill-opacity:1;" d="M 103.710938 46.464844 L 101.8125 51.042969 L 99.089844 51.132812 C 99.089844 51.132812 102.277344 52.113281 103.164062 57.925781 L 100.546875 58.714844 C 100.546875 58.714844 98.035156 61.066406 93.335938 60.839844 L 80.738281 59.78125 L 80.6875 55.375 L 89.394531 54.363281 C 89.394531 54.363281 91.335938 53.085938 81.730469 47.820312 C 81.730469 47.820312 78.550781 45.867188 81.410156 36.226562 C 81.804688 34.902344 82.992188 33.949219 84.371094 33.921875 C 85.128906 33.90625 85.84375 34.179688 86.125 35.125 C 86.851562 37.539062 86.117188 39.941406 88.109375 41.445312 C 90.097656 42.953125 103.710938 46.464844 103.710938 46.464844 Z M 103.710938 46.464844 "/>
<path style=" stroke:none;fill-rule:nonzero;fill:rgb(18.431373%,18.039216%,25.490196%);fill-opacity:1;" d="M 245.957031 107.707031 C 245.957031 107.707031 232.273438 131.058594 201.308594 126.847656 C 193.941406 125.847656 187.457031 121.453125 183.765625 114.976562 C 176.625 102.460938 165.789062 80.546875 169.300781 68.140625 L 116.933594 58.109375 L 112.804688 45.351562 L 169.484375 37.964844 C 174.496094 37.3125 179.40625 39.757812 181.917969 44.160156 L 209.527344 92.53125 L 217.757812 93.433594 Z M 245.957031 107.707031 "/>
<path style=" stroke:none;fill-rule:nonzero;fill:rgb(62.745098%,38.039216%,41.568627%);fill-opacity:1;" d="M 131.585938 63.296875 L 130.839844 50.304688 L 91.554688 56.554688 L 92.058594 65.359375 Z M 131.585938 63.296875 "/>
<path style=" stroke:none;fill-rule:nonzero;fill:rgb(18.431373%,18.039216%,25.490196%);fill-opacity:1;" d="M 103.910156 53.996094 L 102.386719 58.710938 L 99.675781 59.019531 C 99.675781 59.019531 102.933594 59.738281 104.285156 65.464844 L 101.738281 66.460938 C 101.738281 66.460938 99.421875 69.007812 94.71875 69.160156 L 82.078125 69.121094 L 81.675781 64.734375 L 90.273438 63.023438 C 90.273438 63.023438 92.105469 61.589844 82.109375 57.117188 C 82.109375 57.117188 78.78125 55.429688 80.859375 45.589844 C 81.148438 44.238281 82.253906 43.191406 83.625 43.050781 C 84.382812 42.972656 85.113281 43.191406 85.472656 44.113281 C 86.386719 46.457031 85.851562 48.914062 87.953125 50.253906 C 90.058594 51.59375 103.910156 53.996094 103.910156 53.996094 Z M 103.910156 53.996094 "/>
<path style=" stroke:none;fill-rule:nonzero;fill:rgb(18.431373%,18.039216%,25.490196%);fill-opacity:1;" d="M 250.605469 103.554688 C 250.605469 103.554688 238.839844 127.933594 207.636719 126.238281 C 200.210938 125.835938 193.398438 121.976562 189.199219 115.820312 C 181.078125 103.921875 168.515625 82.957031 171.023438 70.304688 L 118.023438 64.535156 L 112.886719 52.148438 L 168.785156 40.210938 C 173.730469 39.15625 178.820312 41.199219 181.679688 45.382812 L 213.078125 91.371094 L 221.351562 91.605469 Z M 250.605469 103.554688 "/>
<path style=" stroke:none;fill-rule:nonzero;fill:rgb(24.705882%,23.921569%,33.72549%);fill-opacity:1;" d="M 214.734375 0.605469 L 212.015625 2.65625 L 226.304688 22.457031 L 229.027344 21.773438 Z M 214.734375 0.605469 "/>
<path style=" stroke:none;fill-rule:nonzero;fill:rgb(42.352941%,38.823529%,100%);fill-opacity:1;" d="M 251.894531 44.578125 L 267.546875 43.894531 L 274.355469 74.621094 C 274.355469 74.621094 260.0625 128.5625 243.046875 126.515625 C 243.046875 126.515625 232.5 118.664062 232.5 115.933594 C 232.5 113.199219 218.207031 106.371094 218.207031 106.371094 L 214.804688 94.765625 L 225.015625 79.058594 C 225.015625 79.058594 229.097656 66.769531 242.707031 59.941406 Z M 251.894531 44.578125 "/>
<path style=" stroke:none;fill-rule:nonzero;fill:rgb(90.196078%,90.196078%,90.196078%);fill-opacity:1;" d="M 162.402344 68.476562 L 23.230469 68.476562 L 23.230469 71.890625 L 91.285156 71.890625 L 91.285156 200.257812 L 94.6875 200.257812 L 94.6875 71.890625 L 162.402344 71.890625 Z M 162.402344 68.476562 "/>
<path style=" stroke:none;fill-rule:nonzero;fill:rgb(62.745098%,38.039216%,41.568627%);fill-opacity:1;" d="M 278.4375 23.410156 C 278.4375 33.59375 270.210938 41.847656 260.0625 41.847656 C 249.914062 41.847656 241.6875 33.59375 241.6875 23.410156 C 241.6875 13.230469 249.914062 4.976562 260.0625 4.976562 C 270.210938 4.976562 278.4375 13.230469 278.4375 23.410156 Z M 278.4375 23.410156 "/>
<path style=" stroke:none;fill-rule:nonzero;fill:rgb(90.196078%,90.196078%,90.196078%);fill-opacity:1;" d="M 195.992188 46.96875 L 183.160156 52.089844 L 208.339844 85.546875 L 217.1875 78.71875 Z M 195.992188 46.96875 "/>
<path style=" stroke:none;fill-rule:nonzero;fill:rgb(62.745098%,38.039216%,41.568627%);fill-opacity:1;" d="M 246.109375 111.152344 C 246.109375 111.152344 241.347656 126.277344 231.140625 118.714844 C 220.929688 111.152344 206.257812 87.9375 206.257812 87.9375 L 214.125 82.132812 L 231.140625 100.648438 L 235.902344 98.179688 Z M 246.109375 111.152344 "/>
<path style=" stroke:none;fill-rule:nonzero;fill:rgb(42.352941%,38.823529%,100%);fill-opacity:1;" d="M 253.597656 57.894531 L 269.25 67.453125 L 246.109375 117.980469 L 231.140625 97.496094 Z M 253.597656 57.894531 "/>
<path style=" stroke:none;fill-rule:nonzero;fill:rgb(62.745098%,38.039216%,41.568627%);fill-opacity:1;" d="M 212.875 75.644531 C 209.960938 70.582031 204.960938 68.007812 201.703125 69.894531 C 198.449219 71.78125 198.171875 77.410156 201.085938 82.472656 C 204 87.535156 209 90.109375 212.253906 88.226562 C 215.507812 86.339844 215.785156 80.707031 212.875 75.644531 Z M 212.875 75.644531 "/>
<path style=" stroke:none;fill-rule:nonzero;fill:rgb(24.705882%,23.921569%,33.72549%);fill-opacity:1;" d="M 262.070312 79.230469 C 266.789062 63.71875 271.847656 58.808594 277.167969 61.882812 C 281.21875 64.222656 282.4375 69.546875 280.066406 73.585938 C 274.015625 83.878906 261.546875 107.46875 264.144531 123.101562 C 264.144531 123.101562 268.230469 144.953125 235.5625 144.953125 C 202.894531 144.953125 171.589844 137.441406 171.589844 137.441406 L 188.605469 134.710938 L 227.296875 137.480469 C 236.136719 138.117188 243.585938 130.527344 242.40625 121.714844 C 242.367188 121.421875 242.320312 121.128906 242.265625 120.832031 C 240.328125 110.128906 262.070312 79.230469 262.070312 79.230469 Z M 262.070312 79.230469 "/>
<path style=" stroke:none;fill-rule:nonzero;fill:rgb(18.431373%,18.039216%,25.490196%);fill-opacity:1;" d="M 253.175781 15.769531 C 251.675781 19.984375 254.972656 24.363281 259.425781 24.066406 L 259.53125 24.058594 C 262.523438 27.8125 262.609375 33.125 259.734375 36.96875 C 259.496094 41.925781 260.269531 46.882812 262.007812 51.527344 L 266.886719 64.585938 L 274.398438 61.066406 L 277.964844 70.613281 L 298.941406 59.773438 L 286.226562 31.074219 L 282.347656 15.503906 C 279.589844 4.425781 268.328125 -2.238281 257.328125 0.691406 L 248.890625 2.941406 C 242.222656 4.714844 238.386719 11.71875 240.460938 18.320312 L 253.175781 15.769531 "/>
</g>
</svg>
