<svg id="svg" version="1.1" xmlns="http://www.w3.org/2000/svg" xmlns:xlink="http://www.w3.org/1999/xlink" width="400" height="200" viewBox="0, 0, 400,200"><g id="svgg"><path id="path0" d="M112.506 78.323 C 112.468 78.385,112.097 78.426,111.681 78.414 C 111.266 78.402,110.926 78.457,110.926 78.537 C 110.926 78.616,110.780 78.674,110.602 78.665 C 110.133 78.642,109.018 78.849,108.451 79.064 C 108.183 79.167,107.963 79.212,107.963 79.165 C 107.963 79.118,107.540 79.246,107.024 79.450 C 106.507 79.653,106.007 79.772,105.912 79.714 C 105.818 79.656,105.741 79.696,105.741 79.804 C 105.741 79.912,105.677 79.979,105.598 79.954 C 105.458 79.908,104.494 80.286,103.071 80.945 C 102.672 81.129,102.264 81.229,102.163 81.167 C 102.062 81.105,102.035 81.143,102.102 81.252 C 102.174 81.369,101.883 81.580,101.390 81.769 C 100.931 81.944,100.556 82.164,100.556 82.258 C 100.556 82.352,100.472 82.378,100.370 82.315 C 100.269 82.252,100.185 82.294,100.185 82.407 C 100.185 82.521,100.102 82.563,100.000 82.500 C 99.898 82.437,99.815 82.479,99.815 82.593 C 99.815 82.706,99.731 82.748,99.630 82.685 C 99.528 82.622,99.444 82.706,99.444 82.870 C 99.444 83.035,99.372 83.125,99.283 83.070 C 99.194 83.015,98.903 83.171,98.638 83.417 C 98.372 83.663,97.843 84.099,97.461 84.386 C 96.649 84.996,94.036 87.543,94.444 87.327 C 94.597 87.246,94.451 87.421,94.120 87.716 C 93.789 88.011,93.519 88.359,93.519 88.489 C 93.519 88.619,93.435 88.674,93.333 88.611 C 93.231 88.548,93.148 88.618,93.148 88.766 C 93.148 88.913,93.023 89.082,92.870 89.141 C 92.718 89.200,92.593 89.371,92.593 89.523 C 92.593 89.674,92.380 90.010,92.121 90.269 C 91.862 90.529,91.710 90.741,91.783 90.741 C 91.856 90.741,91.740 90.928,91.525 91.157 C 91.310 91.387,91.126 91.616,91.117 91.667 C 91.017 92.231,90.854 92.570,90.722 92.488 C 90.633 92.433,90.609 92.517,90.669 92.674 C 90.734 92.842,90.657 93.007,90.483 93.073 C 90.320 93.136,90.233 93.262,90.290 93.353 C 90.346 93.444,90.295 93.519,90.176 93.519 C 90.057 93.519,90.010 93.647,90.071 93.806 C 90.134 93.971,90.103 94.045,89.998 93.980 C 89.897 93.918,89.815 94.065,89.815 94.310 C 89.815 94.554,89.752 94.816,89.676 94.892 C 89.600 94.968,89.534 95.086,89.530 95.154 C 89.527 95.222,89.426 95.454,89.306 95.670 C 89.185 95.886,89.140 96.115,89.204 96.179 C 89.268 96.244,89.226 96.296,89.111 96.296 C 88.995 96.296,88.948 96.421,89.007 96.574 C 89.066 96.727,89.039 96.852,88.948 96.852 C 88.857 96.852,88.771 96.998,88.758 97.178 C 88.716 97.737,88.617 98.051,88.445 98.176 C 88.353 98.242,88.254 98.617,88.224 99.009 C 88.194 99.401,88.159 99.722,88.145 99.722 C 88.102 99.722,87.984 100.426,87.882 101.296 C 87.828 101.755,87.738 102.338,87.682 102.593 C 87.504 103.399,87.368 107.965,87.511 108.295 C 87.672 108.666,87.711 108.938,87.838 110.587 C 87.891 111.266,88.024 111.989,88.133 112.195 C 88.243 112.400,88.333 112.768,88.333 113.013 C 88.333 113.257,88.391 113.514,88.462 113.585 C 88.532 113.656,88.616 113.899,88.649 114.125 C 88.682 114.352,88.841 114.870,89.002 115.278 C 89.164 115.685,89.323 116.144,89.355 116.296 C 89.388 116.449,89.562 116.907,89.742 117.315 C 89.922 117.722,90.053 118.118,90.034 118.194 C 90.015 118.271,90.092 118.333,90.205 118.333 C 90.318 118.333,90.361 118.461,90.301 118.618 C 90.239 118.780,90.310 118.948,90.465 119.008 C 90.615 119.066,90.697 119.181,90.645 119.264 C 90.594 119.347,90.674 119.536,90.823 119.685 C 90.972 119.834,91.042 120.007,90.979 120.071 C 90.916 120.134,90.961 120.185,91.080 120.185 C 91.199 120.185,91.296 120.310,91.296 120.463 C 91.296 120.616,91.385 120.741,91.492 120.741 C 91.600 120.741,91.637 120.824,91.574 120.926 C 91.511 121.028,91.553 121.111,91.667 121.111 C 91.781 121.111,91.828 121.186,91.771 121.277 C 91.715 121.368,91.805 121.495,91.972 121.559 C 92.139 121.623,92.231 121.720,92.176 121.774 C 92.122 121.829,92.316 122.135,92.608 122.454 C 92.900 122.773,93.108 123.065,93.070 123.103 C 93.033 123.140,93.181 123.366,93.399 123.605 C 93.981 124.241,94.259 124.601,94.259 124.717 C 94.259 124.930,96.443 127.013,96.552 126.904 C 96.615 126.842,96.667 126.929,96.667 127.099 C 96.667 127.269,96.754 127.407,96.860 127.407 C 96.967 127.407,97.258 127.612,97.508 127.862 C 97.758 128.112,97.963 128.275,97.963 128.223 C 97.963 128.172,98.266 128.424,98.635 128.783 C 99.005 129.142,99.380 129.392,99.469 129.337 C 99.557 129.282,99.630 129.308,99.630 129.394 C 99.630 129.524,100.623 130.215,100.926 130.295 C 101.399 130.421,102.222 130.854,102.222 130.977 C 102.222 131.063,102.297 131.087,102.388 131.031 C 102.479 130.974,102.605 131.061,102.667 131.224 C 102.732 131.393,102.900 131.474,103.057 131.414 C 103.209 131.356,103.333 131.394,103.333 131.498 C 103.333 131.603,103.417 131.637,103.519 131.574 C 103.620 131.511,103.704 131.557,103.704 131.676 C 103.704 131.794,103.823 131.846,103.970 131.789 C 104.116 131.733,104.262 131.761,104.294 131.851 C 104.326 131.942,104.574 132.055,104.845 132.104 C 105.116 132.152,105.491 132.274,105.678 132.374 C 105.865 132.474,106.081 132.564,106.157 132.574 C 106.234 132.584,106.317 132.600,106.343 132.608 C 106.368 132.617,106.556 132.653,106.759 132.688 C 107.248 132.773,107.870 132.927,107.870 132.963 C 107.870 132.999,108.473 133.134,109.074 133.232 C 109.329 133.274,109.537 133.320,109.537 133.336 C 109.537 133.366,109.885 133.415,111.574 133.623 C 112.830 133.778,119.332 133.784,120.463 133.632 C 120.870 133.577,121.495 133.485,121.852 133.428 C 122.208 133.370,122.729 133.316,123.009 133.307 C 123.289 133.298,123.519 133.226,123.519 133.148 C 123.519 133.023,124.329 132.848,125.677 132.679 C 126.313 132.599,127.407 132.163,127.407 131.989 C 127.407 131.902,127.488 131.880,127.587 131.941 C 127.686 132.002,127.964 131.924,128.204 131.766 C 128.444 131.609,128.697 131.536,128.765 131.604 C 128.833 131.673,128.889 131.638,128.889 131.527 C 128.889 131.416,129.160 131.267,129.491 131.195 C 129.822 131.124,130.314 130.909,130.584 130.718 C 130.854 130.527,131.167 130.370,131.279 130.370 C 131.390 130.370,131.481 130.291,131.481 130.194 C 131.481 130.097,131.856 129.851,132.315 129.649 C 132.773 129.446,133.148 129.187,133.148 129.074 C 133.148 128.960,133.222 128.913,133.313 128.969 C 133.404 129.025,133.614 128.864,133.780 128.611 C 133.945 128.358,134.145 128.171,134.223 128.196 C 134.300 128.220,134.629 127.970,134.954 127.639 C 135.278 127.308,135.616 127.037,135.706 127.037 C 135.795 127.037,136.019 126.870,136.204 126.667 C 136.388 126.463,136.469 126.296,136.383 126.296 C 136.297 126.296,136.408 126.127,136.630 125.920 C 136.852 125.713,137.370 125.088,137.782 124.531 C 138.194 123.974,138.611 123.519,138.710 123.519 C 138.808 123.519,138.889 123.404,138.889 123.263 C 138.889 123.123,139.014 122.905,139.167 122.778 C 139.319 122.651,139.444 122.395,139.444 122.209 C 139.444 122.023,139.653 121.646,139.907 121.371 C 140.162 121.097,140.381 120.801,140.394 120.714 C 140.406 120.627,140.427 120.476,140.440 120.380 C 140.453 120.283,140.561 120.106,140.680 119.987 C 140.799 119.867,140.848 119.641,140.787 119.484 C 140.723 119.316,140.755 119.246,140.867 119.315 C 141.047 119.427,141.481 118.318,141.481 117.747 C 141.481 117.601,141.581 117.382,141.702 117.261 C 141.823 117.140,141.948 116.915,141.980 116.761 C 142.011 116.607,142.062 116.359,142.093 116.209 C 142.124 116.059,142.202 115.884,142.266 115.821 C 142.330 115.757,142.334 115.579,142.275 115.426 C 142.216 115.273,142.256 115.094,142.363 115.027 C 142.470 114.961,142.603 114.532,142.658 114.074 C 142.713 113.616,142.812 112.991,142.879 112.685 C 142.945 112.380,143.035 111.838,143.079 111.481 C 143.123 111.125,143.206 110.500,143.264 110.093 C 143.364 109.396,143.421 108.525,143.526 106.111 C 143.551 105.551,143.549 104.363,143.523 103.472 L 143.475 101.852 129.235 101.852 L 114.995 101.852 115.044 107.454 L 115.093 113.056 122.282 113.056 L 129.472 113.056 129.352 113.611 C 129.286 113.917,129.213 114.250,129.190 114.352 C 129.167 114.454,129.060 114.704,128.951 114.907 C 128.843 115.111,128.791 115.382,128.837 115.509 C 128.882 115.637,128.829 115.741,128.719 115.741 C 128.609 115.741,128.519 115.918,128.519 116.136 C 128.519 116.611,127.828 117.778,127.547 117.778 C 127.436 117.778,127.398 117.830,127.463 117.895 C 127.599 118.031,125.482 120.185,125.211 120.185 C 125.111 120.185,124.756 120.456,124.422 120.787 C 124.089 121.118,123.880 121.264,123.959 121.111 C 124.086 120.864,124.074 120.864,123.856 121.111 C 123.553 121.454,122.407 122.104,122.407 121.934 C 122.407 121.865,122.202 121.944,121.951 122.109 C 121.699 122.273,121.304 122.443,121.071 122.486 C 120.838 122.530,120.606 122.581,120.556 122.601 C 120.505 122.620,120.388 122.622,120.296 122.605 C 120.205 122.588,119.997 122.635,119.833 122.709 C 119.183 123.005,113.581 123.213,113.416 122.948 C 113.367 122.867,113.009 122.805,112.621 122.811 C 112.233 122.816,111.673 122.701,111.375 122.554 C 111.077 122.408,110.479 122.177,110.046 122.040 C 109.613 121.904,109.259 121.723,109.259 121.637 C 109.259 121.551,109.097 121.481,108.899 121.481 C 108.701 121.481,108.410 121.296,108.251 121.070 C 108.093 120.844,107.960 120.739,107.957 120.838 C 107.954 120.937,107.866 120.871,107.761 120.691 C 107.656 120.510,107.498 120.407,107.409 120.462 C 107.321 120.516,107.202 120.413,107.145 120.233 C 107.087 120.052,106.859 119.822,106.637 119.721 C 106.415 119.620,106.144 119.374,106.034 119.174 C 105.923 118.975,105.645 118.655,105.415 118.465 C 105.185 118.274,105.036 118.054,105.085 117.976 C 105.133 117.898,104.967 117.655,104.716 117.437 C 104.465 117.218,104.259 116.912,104.259 116.757 C 104.259 116.601,104.050 116.142,103.794 115.737 C 103.538 115.332,103.382 115.000,103.446 115.000 C 103.511 115.000,103.471 114.888,103.358 114.751 C 103.244 114.615,103.204 114.450,103.269 114.386 C 103.333 114.321,103.276 114.136,103.142 113.974 C 103.008 113.812,102.878 113.498,102.854 113.275 C 102.806 112.828,102.709 112.457,102.530 112.037 C 102.308 111.518,102.052 108.662,102.048 106.667 C 102.044 105.223,102.137 103.241,102.207 103.241 C 102.243 103.241,102.300 102.906,102.492 101.574 C 102.521 101.370,102.566 101.183,102.592 101.157 C 102.618 101.132,102.656 100.965,102.678 100.787 C 102.699 100.609,102.807 100.244,102.919 99.977 C 103.030 99.709,103.213 99.150,103.325 98.735 C 103.437 98.319,103.611 97.928,103.712 97.865 C 103.813 97.803,103.847 97.675,103.788 97.580 C 103.730 97.485,103.775 97.407,103.889 97.407 C 104.003 97.407,104.050 97.333,103.993 97.242 C 103.937 97.150,104.021 97.026,104.179 96.965 C 104.338 96.904,104.416 96.771,104.353 96.668 C 104.289 96.565,104.331 96.481,104.444 96.481 C 104.558 96.481,104.600 96.398,104.537 96.296 C 104.474 96.194,104.511 96.111,104.619 96.111 C 104.727 96.111,104.815 95.992,104.815 95.847 C 104.815 95.701,105.038 95.407,105.310 95.193 C 105.582 94.979,105.896 94.619,106.007 94.393 C 106.119 94.167,106.397 93.899,106.625 93.798 C 106.854 93.697,107.087 93.467,107.145 93.286 C 107.202 93.105,107.313 92.997,107.392 93.046 C 107.471 93.095,107.773 92.888,108.062 92.586 C 108.351 92.284,108.739 92.037,108.924 92.037 C 109.108 92.037,109.259 91.949,109.259 91.841 C 109.259 91.733,109.335 91.692,109.429 91.749 C 109.522 91.807,109.626 91.773,109.660 91.673 C 109.694 91.574,109.889 91.463,110.093 91.427 C 110.296 91.391,110.788 91.221,111.186 91.048 C 112.589 90.441,117.033 90.230,118.704 90.691 C 119.264 90.846,119.847 90.988,120.000 91.008 C 120.629 91.088,121.296 91.348,121.296 91.512 C 121.296 91.609,121.370 91.643,121.459 91.588 C 121.681 91.451,122.778 92.015,122.778 92.267 C 122.778 92.378,122.830 92.417,122.893 92.354 C 122.957 92.290,123.144 92.384,123.310 92.563 C 123.503 92.771,123.548 92.785,123.435 92.601 C 123.339 92.444,123.547 92.584,123.898 92.913 C 125.781 94.676,126.111 95.016,126.111 95.185 C 126.111 95.287,126.197 95.350,126.301 95.324 C 126.450 95.288,126.833 95.790,127.160 96.450 C 127.176 96.484,127.423 96.359,127.708 96.172 C 128.096 95.919,128.184 95.903,128.056 96.111 C 127.926 96.323,127.994 96.313,128.341 96.066 C 128.905 95.667,130.045 95.118,130.231 95.157 C 130.308 95.172,130.370 95.102,130.370 95.000 C 130.370 94.898,130.433 94.834,130.509 94.857 C 130.724 94.923,132.176 94.299,132.309 94.083 C 132.375 93.977,132.600 93.799,132.810 93.686 C 133.119 93.521,133.163 93.530,133.040 93.732 C 132.945 93.885,133.062 93.857,133.341 93.659 C 133.905 93.259,135.045 92.711,135.231 92.749 C 135.308 92.765,135.370 92.694,135.370 92.593 C 135.370 92.491,135.433 92.427,135.509 92.450 C 135.724 92.516,137.176 91.891,137.309 91.675 C 137.375 91.570,137.600 91.391,137.810 91.279 C 138.119 91.114,138.163 91.123,138.040 91.324 C 137.948 91.473,138.071 91.441,138.341 91.246 C 138.592 91.065,139.028 90.827,139.311 90.716 C 139.690 90.569,139.776 90.455,139.637 90.287 C 139.533 90.161,139.491 90.015,139.544 89.962 C 139.598 89.908,139.432 89.666,139.176 89.423 C 138.920 89.180,138.709 88.872,138.707 88.739 C 138.705 88.606,138.620 88.548,138.519 88.611 C 138.417 88.674,138.333 88.560,138.333 88.357 C 138.333 88.154,138.188 87.939,138.009 87.879 C 137.831 87.819,137.481 87.439,137.231 87.033 C 136.982 86.628,136.667 86.296,136.532 86.296 C 136.397 86.296,136.206 86.083,136.107 85.822 C 136.008 85.561,135.843 85.400,135.741 85.463 C 135.639 85.526,135.556 85.494,135.556 85.392 C 135.556 85.290,135.310 85.061,135.010 84.884 C 134.710 84.707,134.507 84.494,134.558 84.410 C 134.609 84.327,134.522 84.259,134.363 84.259 C 134.204 84.259,134.074 84.182,134.074 84.087 C 134.074 83.992,133.906 83.861,133.701 83.795 C 133.496 83.730,133.363 83.620,133.407 83.550 C 133.450 83.480,133.159 83.264,132.761 83.070 C 132.363 82.877,132.037 82.643,132.037 82.552 C 132.037 82.460,131.959 82.434,131.863 82.493 C 131.768 82.552,131.616 82.468,131.525 82.307 C 131.435 82.146,131.242 81.995,131.097 81.972 C 130.952 81.949,130.583 81.774,130.278 81.583 C 129.053 80.818,128.872 80.729,128.722 80.822 C 128.637 80.875,128.378 80.755,128.148 80.556 C 127.918 80.356,127.657 80.238,127.569 80.293 C 127.480 80.347,127.407 80.318,127.407 80.227 C 127.407 80.136,127.303 80.055,127.176 80.046 C 126.632 80.008,126.037 79.809,125.925 79.628 C 125.858 79.520,125.665 79.485,125.494 79.551 C 125.324 79.616,125.185 79.590,125.185 79.492 C 125.185 79.395,124.936 79.309,124.632 79.300 C 124.328 79.291,123.974 79.218,123.845 79.138 C 123.716 79.058,123.486 78.969,123.333 78.942 C 121.702 78.646,120.568 78.480,120.185 78.483 C 119.931 78.485,119.639 78.421,119.537 78.341 C 119.321 78.173,112.610 78.156,112.506 78.323 M315.452 79.180 C 315.254 79.341,315.210 79.411,315.353 79.337 C 315.520 79.250,315.567 79.276,315.486 79.408 C 315.416 79.521,315.236 79.567,315.087 79.509 C 314.827 79.410,314.733 79.619,314.802 80.141 C 314.818 80.270,314.724 80.417,314.592 80.467 C 314.325 80.570,314.320 124.236,314.586 124.435 C 314.661 124.491,314.722 124.662,314.722 124.815 C 314.722 124.968,314.826 125.072,314.954 125.046 C 315.081 125.021,315.185 125.130,315.185 125.289 C 315.185 125.447,315.266 125.527,315.365 125.466 C 315.464 125.405,315.750 125.489,316.000 125.653 C 316.373 125.898,316.940 125.944,319.190 125.911 L 321.926 125.870 321.874 128.465 C 321.820 131.118,322.040 132.534,322.535 132.724 C 322.669 132.775,322.778 132.938,322.778 133.086 C 322.778 133.236,322.869 133.299,322.984 133.228 C 323.097 133.158,323.248 133.196,323.320 133.312 C 323.468 133.551,348.704 133.714,348.704 133.476 C 348.704 133.401,348.952 133.369,349.255 133.405 C 349.589 133.444,349.761 133.396,349.692 133.284 C 349.621 133.169,349.796 133.131,350.149 133.182 C 350.498 133.234,350.677 133.195,350.608 133.083 C 350.542 132.977,350.619 132.948,350.789 133.013 C 350.951 133.075,351.185 133.005,351.307 132.857 C 351.489 132.638,351.585 132.632,351.819 132.822 C 352.057 133.014,352.081 133.010,351.952 132.797 C 351.829 132.592,351.898 132.564,352.287 132.662 C 352.600 132.740,352.778 132.709,352.778 132.576 C 352.778 132.458,352.911 132.419,353.087 132.486 C 353.257 132.552,353.445 132.540,353.504 132.460 C 353.727 132.159,354.815 131.685,354.815 131.889 C 354.815 132.002,354.967 131.957,355.154 131.788 C 355.340 131.619,355.555 131.543,355.631 131.618 C 355.707 131.694,355.848 131.614,355.945 131.441 C 356.042 131.268,356.235 131.170,356.375 131.224 C 356.515 131.278,356.798 131.140,357.004 130.919 C 357.210 130.697,357.463 130.568,357.566 130.631 C 357.668 130.695,357.978 130.537,358.255 130.281 C 358.532 130.025,358.871 129.815,359.009 129.815 C 359.146 129.815,359.259 129.738,359.259 129.643 C 359.259 129.549,359.588 129.326,359.990 129.149 C 360.391 128.972,360.704 128.778,360.684 128.719 C 360.664 128.660,360.717 128.596,360.801 128.577 C 360.885 128.558,361.103 128.371,361.286 128.160 C 361.468 127.950,361.702 127.778,361.806 127.778 C 361.910 127.778,362.133 127.567,362.302 127.309 C 362.471 127.051,362.689 126.889,362.786 126.949 C 362.883 127.010,362.963 126.924,362.963 126.759 C 362.963 126.594,363.045 126.511,363.146 126.573 C 363.248 126.636,363.284 126.567,363.226 126.418 C 363.170 126.270,363.276 126.037,363.462 125.899 C 363.648 125.761,364.042 125.356,364.337 125.000 C 364.633 124.644,364.940 124.371,365.019 124.395 C 365.099 124.418,365.269 124.147,365.397 123.793 C 365.525 123.438,365.694 123.148,365.772 123.148 C 365.850 123.148,365.870 123.034,365.817 122.894 C 365.763 122.755,365.858 122.587,366.027 122.522 C 366.196 122.457,366.290 122.287,366.235 122.143 C 366.180 122.000,366.263 121.833,366.420 121.773 C 366.580 121.712,366.659 121.543,366.599 121.387 C 366.541 121.235,366.572 121.111,366.669 121.111 C 366.766 121.111,366.897 120.903,366.961 120.648 C 367.025 120.394,367.158 120.185,367.257 120.185 C 367.361 120.185,367.387 119.931,367.318 119.583 C 367.230 119.136,367.249 119.053,367.393 119.259 C 367.581 119.528,367.704 119.172,367.608 118.638 C 367.592 118.551,367.687 118.347,367.818 118.186 C 367.999 117.961,368.001 117.925,367.824 118.031 C 367.697 118.107,367.593 118.089,367.593 117.989 C 367.593 117.890,367.680 117.779,367.788 117.744 C 367.895 117.708,368.004 117.537,368.029 117.363 C 368.055 117.190,368.134 116.990,368.205 116.919 C 368.275 116.848,368.327 116.658,368.320 116.497 C 368.311 116.277,368.263 116.296,368.131 116.574 C 367.982 116.889,367.972 116.875,368.068 116.481 C 368.130 116.227,368.178 115.871,368.175 115.690 C 368.173 115.510,368.235 115.402,368.314 115.451 C 368.392 115.499,368.457 115.422,368.457 115.278 C 368.457 115.134,368.374 115.067,368.274 115.129 C 368.173 115.192,368.147 115.152,368.215 115.042 C 368.371 114.789,368.467 88.148,368.311 88.148 C 368.248 88.148,368.206 87.969,368.219 87.751 C 368.256 87.077,367.134 86.803,363.830 86.682 L 360.901 86.574 360.890 83.417 C 360.879 80.087,360.791 79.716,359.942 79.390 C 359.734 79.311,359.660 79.173,359.746 79.029 C 359.843 78.868,359.789 78.875,359.573 79.050 C 359.400 79.190,359.259 79.232,359.259 79.143 C 359.259 78.956,316.185 79.007,315.882 79.194 C 315.764 79.266,315.737 79.229,315.816 79.103 C 315.997 78.809,315.878 78.835,315.452 79.180 M31.355 96.157 C 31.400 105.350,31.489 113.245,31.552 113.704 C 31.616 114.162,31.716 115.162,31.774 115.926 C 31.831 116.690,31.893 117.502,31.912 117.731 C 31.930 117.961,32.012 118.148,32.094 118.148 C 32.177 118.148,32.194 118.230,32.132 118.329 C 32.071 118.429,32.122 118.866,32.245 119.301 C 32.575 120.463,32.610 120.611,32.655 121.019 C 32.678 121.222,32.761 121.493,32.840 121.620 C 32.920 121.748,32.928 121.852,32.859 121.852 C 32.789 121.852,32.836 121.977,32.963 122.130 C 33.090 122.282,33.137 122.407,33.068 122.407 C 32.999 122.407,33.062 122.637,33.208 122.917 C 33.354 123.197,33.710 123.905,33.998 124.491 C 34.287 125.076,34.593 125.556,34.680 125.556 C 34.766 125.556,34.785 125.639,34.721 125.742 C 34.658 125.845,34.736 125.979,34.896 126.040 C 35.055 126.101,35.187 126.246,35.189 126.362 C 35.192 126.479,35.463 126.881,35.791 127.256 C 36.120 127.631,36.535 128.127,36.713 128.358 C 36.891 128.590,37.037 128.714,37.037 128.634 C 37.037 128.554,37.419 128.871,37.885 129.337 C 38.351 129.804,38.836 130.185,38.961 130.185 C 39.087 130.185,39.351 130.335,39.548 130.517 C 40.032 130.965,41.841 131.852,42.270 131.852 C 42.459 131.852,42.574 131.918,42.524 131.998 C 42.475 132.078,42.657 132.162,42.930 132.185 C 43.203 132.207,43.452 132.303,43.484 132.399 C 43.516 132.494,43.662 132.526,43.808 132.470 C 43.954 132.414,44.074 132.469,44.074 132.593 C 44.074 132.716,44.189 132.773,44.329 132.719 C 44.470 132.666,44.678 132.715,44.792 132.829 C 44.907 132.944,45.000 132.976,45.000 132.901 C 45.000 132.826,45.174 132.858,45.386 132.971 C 45.599 133.085,46.119 133.215,46.544 133.260 C 46.968 133.305,47.419 133.354,47.546 133.368 C 47.674 133.383,47.778 133.461,47.778 133.542 C 47.778 133.623,48.007 133.684,48.287 133.679 C 49.096 133.664,50.447 133.800,50.648 133.918 C 50.966 134.103,60.239 133.939,61.008 133.735 C 61.410 133.628,61.810 133.585,61.896 133.638 C 61.983 133.692,62.154 133.656,62.277 133.560 C 62.399 133.463,62.625 133.375,62.778 133.365 C 64.125 133.272,66.666 132.631,67.063 132.283 C 67.229 132.137,67.542 132.004,67.757 131.988 C 67.972 131.971,68.148 131.899,68.148 131.827 C 68.148 131.755,68.391 131.643,68.688 131.577 C 68.986 131.512,69.418 131.294,69.650 131.094 C 69.881 130.893,70.178 130.769,70.308 130.819 C 70.439 130.869,70.659 130.748,70.799 130.549 C 70.938 130.350,71.105 130.241,71.170 130.305 C 71.235 130.370,71.340 130.286,71.404 130.119 C 71.469 129.952,71.637 129.815,71.779 129.815 C 71.921 129.815,72.039 129.752,72.041 129.676 C 72.042 129.600,72.541 129.120,73.148 128.611 C 73.755 128.102,74.254 127.590,74.256 127.474 C 74.258 127.357,74.396 127.209,74.564 127.145 C 74.731 127.081,74.816 126.976,74.752 126.913 C 74.688 126.849,74.814 126.643,75.032 126.454 C 75.249 126.265,75.352 126.109,75.260 126.105 C 75.168 126.102,75.238 126.015,75.417 125.911 C 75.595 125.807,75.741 125.622,75.741 125.500 C 75.742 125.378,75.924 124.986,76.147 124.630 C 76.369 124.273,76.569 123.888,76.589 123.773 C 76.610 123.659,76.767 123.270,76.939 122.908 C 77.110 122.547,77.280 122.099,77.315 121.913 C 77.350 121.726,77.398 121.532,77.421 121.481 C 77.445 121.431,77.483 121.306,77.507 121.204 C 77.531 121.102,77.566 120.977,77.585 120.926 C 77.634 120.799,77.785 120.153,77.846 119.815 C 77.873 119.662,77.950 119.329,78.017 119.074 C 78.217 118.311,78.390 116.668,78.642 113.148 C 78.704 112.282,78.789 104.345,78.832 95.509 L 78.909 79.444 71.580 79.444 L 64.251 79.444 64.256 95.139 C 64.261 110.065,64.238 111.549,63.970 113.519 C 63.908 113.977,63.835 114.519,63.808 114.722 C 63.781 114.926,63.713 115.218,63.656 115.370 C 63.599 115.523,63.418 116.211,63.255 116.900 C 63.092 117.588,62.772 118.376,62.544 118.651 C 61.697 119.675,60.696 120.560,60.262 120.669 C 60.016 120.730,59.815 120.864,59.815 120.966 C 59.815 121.068,59.700 121.107,59.560 121.053 C 59.419 120.999,59.211 121.048,59.097 121.163 C 58.982 121.277,58.889 121.309,58.889 121.234 C 58.889 121.159,58.735 121.180,58.547 121.281 C 57.229 121.986,50.926 121.808,50.926 121.066 C 50.926 120.955,50.874 120.916,50.811 120.979 C 50.748 121.042,50.576 120.972,50.428 120.825 C 50.280 120.677,49.959 120.556,49.716 120.556 C 49.456 120.556,49.187 120.396,49.066 120.169 C 48.952 119.957,48.811 119.831,48.752 119.890 C 48.595 120.047,48.135 119.616,48.254 119.423 C 48.310 119.333,48.267 119.259,48.159 119.259 C 48.051 119.259,47.963 119.132,47.963 118.976 C 47.963 118.820,47.838 118.644,47.685 118.585 C 47.532 118.527,47.407 118.327,47.407 118.142 C 47.407 117.956,47.301 117.694,47.172 117.560 C 47.042 117.425,46.943 117.190,46.951 117.037 C 46.960 116.884,46.904 116.673,46.828 116.568 C 46.751 116.463,46.646 116.172,46.595 115.920 C 46.543 115.669,46.450 115.255,46.388 115.000 C 46.326 114.745,46.246 114.120,46.209 113.611 C 46.173 113.102,46.128 112.685,46.109 112.685 C 46.008 112.685,45.956 106.769,45.945 93.843 L 45.933 79.444 38.603 79.444 L 31.274 79.444 31.355 96.157 M152.963 106.115 L 152.963 132.785 157.269 132.735 L 161.574 132.685 161.574 119.815 L 161.574 106.944 174.676 106.944 L 187.778 106.944 187.778 119.865 L 187.778 132.785 192.083 132.735 L 196.389 132.685 196.436 106.065 L 196.483 79.444 192.130 79.444 L 187.778 79.444 187.778 89.259 L 187.778 99.074 174.722 99.074 L 161.667 99.074 161.667 89.259 L 161.667 79.444 157.315 79.444 L 152.963 79.444 152.963 106.115 M208.293 96.806 C 208.264 106.354,208.275 114.243,208.317 114.337 C 208.359 114.430,208.416 115.013,208.443 115.633 C 208.517 117.315,208.719 118.770,208.910 119.004 C 209.004 119.119,209.025 119.356,208.958 119.532 C 208.890 119.708,208.927 119.909,209.040 119.979 C 209.153 120.049,209.285 120.395,209.333 120.748 C 209.496 121.950,209.676 122.593,209.849 122.593 C 209.944 122.593,209.970 122.676,209.907 122.778 C 209.844 122.880,209.860 122.963,209.943 122.964 C 210.025 122.964,210.253 123.360,210.449 123.843 C 210.645 124.327,210.934 124.922,211.090 125.167 C 211.247 125.411,211.393 125.728,211.414 125.872 C 211.435 126.015,211.665 126.346,211.927 126.607 C 212.188 126.868,212.356 127.155,212.301 127.245 C 212.246 127.334,212.344 127.407,212.520 127.407 C 212.696 127.407,212.797 127.450,212.745 127.502 C 212.618 127.629,214.570 129.630,214.822 129.630 C 214.932 129.630,214.970 129.713,214.907 129.815 C 214.844 129.917,214.923 130.000,215.082 130.000 C 215.240 130.000,215.370 130.083,215.370 130.185 C 215.370 130.287,215.495 130.370,215.648 130.370 C 215.801 130.370,215.926 130.454,215.926 130.556 C 215.926 130.657,216.088 130.741,216.286 130.741 C 216.484 130.741,216.762 130.907,216.904 131.110 C 217.046 131.313,217.206 131.436,217.259 131.383 C 217.311 131.330,217.460 131.414,217.589 131.570 C 217.718 131.725,217.975 131.852,218.160 131.852 C 218.345 131.852,218.549 131.937,218.613 132.040 C 218.677 132.144,218.807 132.180,218.902 132.122 C 218.996 132.063,219.074 132.098,219.074 132.199 C 219.074 132.416,219.511 132.571,220.473 132.694 C 220.857 132.743,221.263 132.856,221.373 132.944 C 221.569 133.102,222.593 133.381,223.148 133.429 C 223.301 133.442,223.926 133.526,224.537 133.615 C 225.148 133.704,225.719 133.757,225.807 133.733 C 225.894 133.710,226.060 133.766,226.177 133.858 C 226.405 134.037,233.673 134.053,233.981 133.874 C 234.083 133.815,234.438 133.783,234.769 133.802 C 235.100 133.820,235.370 133.785,235.370 133.724 C 235.370 133.662,235.641 133.620,235.972 133.631 C 236.303 133.642,236.620 133.581,236.676 133.495 C 236.732 133.409,237.065 133.301,237.417 133.256 C 237.768 133.210,238.056 133.157,238.056 133.137 C 238.056 133.117,238.222 133.070,238.426 133.033 C 238.630 132.996,239.088 132.912,239.444 132.846 C 239.801 132.780,240.134 132.675,240.185 132.612 C 240.236 132.549,240.611 132.384,241.019 132.245 C 241.426 132.105,241.884 131.888,242.037 131.761 C 242.190 131.635,242.525 131.482,242.781 131.421 C 243.038 131.360,243.416 131.162,243.622 130.979 C 243.828 130.797,244.111 130.623,244.251 130.592 C 244.391 130.560,244.741 130.269,245.028 129.943 C 245.315 129.618,245.551 129.414,245.553 129.491 C 245.557 129.690,246.845 128.362,247.490 127.494 C 247.791 127.090,248.199 126.613,248.398 126.435 C 248.598 126.257,248.690 126.111,248.604 126.111 C 248.518 126.111,248.579 126.007,248.740 125.880 C 248.901 125.752,249.130 125.342,249.248 124.969 C 249.367 124.595,249.584 124.189,249.732 124.066 C 249.879 123.944,250.000 123.692,250.000 123.507 C 250.000 123.322,250.085 123.118,250.188 123.054 C 250.292 122.990,250.328 122.860,250.270 122.765 C 250.211 122.670,250.260 122.593,250.379 122.593 C 250.498 122.593,250.551 122.478,250.497 122.337 C 250.443 122.197,250.474 122.008,250.565 121.917 C 250.656 121.826,250.756 121.586,250.787 121.385 C 250.818 121.183,250.908 120.916,250.986 120.791 C 251.064 120.666,251.156 120.291,251.191 119.958 C 251.225 119.624,251.312 119.210,251.384 119.037 C 251.456 118.863,251.460 118.634,251.394 118.527 C 251.328 118.421,251.345 118.333,251.431 118.333 C 251.599 118.333,251.609 118.269,251.706 116.538 C 251.742 115.906,251.825 115.336,251.891 115.270 C 251.957 115.204,252.020 107.116,252.030 97.297 L 252.049 79.444 247.691 79.444 L 243.333 79.444 243.296 95.880 C 243.250 115.614,243.265 114.300,243.091 114.577 C 243.013 114.701,242.944 115.263,242.937 115.826 C 242.930 116.389,242.855 116.807,242.770 116.754 C 242.685 116.702,242.616 116.806,242.617 116.987 C 242.619 117.322,242.545 117.654,242.358 118.148 C 242.300 118.301,242.107 118.843,241.929 119.352 C 241.750 119.861,241.480 120.424,241.329 120.602 C 241.178 120.780,241.118 120.926,241.196 120.926 C 241.274 120.926,241.141 121.099,240.900 121.310 C 240.660 121.522,240.588 121.635,240.741 121.562 C 240.894 121.489,240.469 121.962,239.797 122.613 C 238.663 123.712,236.497 125.255,236.787 124.757 C 236.858 124.636,236.735 124.696,236.513 124.890 C 236.292 125.084,236.110 125.167,236.108 125.075 C 236.107 124.983,236.036 125.017,235.951 125.150 C 235.867 125.284,235.537 125.401,235.220 125.410 C 234.902 125.419,234.681 125.489,234.728 125.565 C 234.775 125.641,234.543 125.705,234.212 125.706 C 233.882 125.708,233.403 125.789,233.148 125.886 C 232.619 126.089,226.805 126.033,226.464 125.822 C 226.340 125.746,226.064 125.659,225.851 125.628 C 224.898 125.493,224.347 125.336,224.294 125.185 C 224.262 125.095,224.116 125.067,223.970 125.123 C 223.823 125.179,223.704 125.128,223.704 125.009 C 223.704 124.890,223.630 124.839,223.540 124.894 C 223.449 124.950,223.273 124.873,223.148 124.722 C 223.023 124.572,222.847 124.494,222.757 124.550 C 222.666 124.606,222.593 124.558,222.593 124.444 C 222.593 124.331,222.509 124.289,222.407 124.352 C 222.306 124.415,222.222 124.378,222.222 124.270 C 222.222 124.162,222.102 124.074,221.955 124.074 C 221.808 124.074,221.571 123.908,221.429 123.705 C 221.287 123.502,221.115 123.391,221.048 123.458 C 220.981 123.525,220.926 123.486,220.926 123.372 C 220.926 123.257,220.509 122.773,220.000 122.297 C 219.491 121.821,219.074 121.284,219.074 121.106 C 219.074 120.927,218.949 120.732,218.796 120.674 C 218.644 120.615,218.519 120.351,218.519 120.087 C 218.519 119.815,218.439 119.657,218.333 119.722 C 218.231 119.785,218.148 119.716,218.148 119.569 C 218.148 119.422,218.024 119.063,217.872 118.771 C 217.719 118.479,217.594 117.970,217.594 117.639 C 217.593 117.308,217.530 117.037,217.454 117.037 C 217.324 117.037,217.237 116.609,217.161 115.602 C 217.144 115.373,217.084 115.185,217.029 115.185 C 216.886 115.185,216.892 115.833,216.874 96.806 L 216.858 79.444 212.601 79.444 L 208.344 79.444 208.293 96.806 M263.749 106.048 L 263.796 132.685 270.556 132.682 C 279.724 132.679,285.057 132.422,287.315 131.877 C 287.722 131.779,288.252 131.653,288.492 131.597 C 288.733 131.541,289.280 131.325,289.708 131.118 C 290.137 130.910,290.586 130.741,290.707 130.741 C 290.827 130.741,290.926 130.652,290.926 130.545 C 290.926 130.437,291.009 130.400,291.111 130.463 C 291.213 130.526,291.296 130.499,291.296 130.404 C 291.296 130.308,291.560 130.121,291.882 129.988 C 292.429 129.761,294.933 127.467,294.886 127.235 C 294.845 127.030,295.247 126.296,295.400 126.296 C 295.486 126.296,295.556 126.184,295.556 126.047 C 295.556 125.910,295.722 125.647,295.926 125.463 C 296.130 125.279,296.296 124.980,296.296 124.799 C 296.296 124.619,296.426 124.341,296.585 124.182 C 296.744 124.023,296.886 123.704,296.901 123.474 C 296.915 123.244,297.000 123.005,297.091 122.942 C 297.181 122.880,297.287 122.546,297.326 122.201 C 297.428 121.317,297.490 121.051,297.655 120.787 C 297.735 120.660,297.752 120.478,297.693 120.383 C 297.634 120.288,297.657 120.167,297.743 120.114 C 297.869 120.036,297.911 114.722,297.786 114.722 C 297.730 114.722,297.587 114.043,297.511 113.415 C 297.473 113.103,297.316 112.547,297.163 112.180 C 297.009 111.812,296.932 111.463,296.991 111.404 C 297.050 111.345,297.002 111.296,296.883 111.296 C 296.764 111.296,296.667 111.181,296.667 111.040 C 296.667 110.690,296.191 109.797,296.069 109.918 C 296.016 109.972,295.921 109.883,295.858 109.721 C 295.783 109.524,295.822 109.464,295.974 109.542 C 296.100 109.606,296.033 109.506,295.824 109.320 C 295.616 109.134,295.285 108.711,295.090 108.380 C 294.895 108.049,294.628 107.778,294.497 107.778 C 294.366 107.778,294.259 107.688,294.259 107.579 C 294.259 107.470,294.134 107.256,293.981 107.103 C 293.829 106.950,293.704 106.886,293.704 106.960 C 293.704 107.034,293.486 106.853,293.219 106.557 C 292.952 106.261,292.796 106.144,292.872 106.296 C 292.948 106.449,292.786 106.343,292.512 106.061 C 292.239 105.779,291.936 105.596,291.841 105.655 C 291.745 105.714,291.667 105.674,291.667 105.566 C 291.667 105.459,291.604 105.388,291.528 105.410 C 291.451 105.431,291.201 105.345,290.972 105.218 C 290.743 105.091,290.556 105.042,290.556 105.109 C 290.556 105.176,290.431 105.127,290.278 105.000 C 290.125 104.873,290.000 104.832,290.000 104.907 C 290.000 104.983,289.896 104.960,289.769 104.857 C 289.641 104.753,289.219 104.626,288.830 104.575 C 287.882 104.450,287.812 104.329,288.602 104.181 C 288.964 104.113,289.259 103.973,289.259 103.870 C 289.259 103.766,289.327 103.724,289.410 103.775 C 289.492 103.826,289.805 103.701,290.104 103.497 C 290.403 103.293,290.836 103.050,291.065 102.957 C 291.294 102.863,291.481 102.702,291.481 102.597 C 291.481 102.493,291.569 102.407,291.676 102.407 C 291.896 102.407,293.146 101.100,293.147 100.869 C 293.148 100.786,293.231 100.770,293.333 100.833 C 293.435 100.896,293.519 100.852,293.519 100.734 C 293.519 100.616,293.706 100.257,293.935 99.936 C 294.164 99.615,294.355 99.310,294.359 99.259 C 294.364 99.208,294.498 98.917,294.658 98.611 C 294.818 98.306,294.912 97.951,294.867 97.824 C 294.821 97.697,294.856 97.593,294.945 97.593 C 295.033 97.593,295.121 97.447,295.140 97.269 C 295.158 97.090,295.264 96.403,295.374 95.741 C 295.704 93.762,295.566 89.865,295.157 89.612 C 295.045 89.543,295.006 89.399,295.072 89.293 C 295.138 89.187,295.114 89.052,295.020 88.994 C 294.926 88.936,294.890 88.734,294.939 88.546 C 294.988 88.358,294.908 88.083,294.761 87.936 C 294.484 87.658,294.158 86.864,294.223 86.620 C 294.243 86.544,294.171 86.481,294.063 86.481 C 293.955 86.481,293.919 86.398,293.981 86.296 C 294.044 86.194,294.008 86.111,293.900 86.111 C 293.792 86.111,293.714 86.049,293.726 85.972 C 293.782 85.618,293.688 85.358,293.538 85.451 C 293.447 85.507,293.325 85.366,293.267 85.138 C 293.143 84.649,290.735 82.037,290.409 82.037 C 290.286 82.037,290.185 81.969,290.185 81.886 C 290.185 81.717,288.918 81.037,288.578 81.023 C 288.458 81.018,288.298 80.952,288.223 80.877 C 288.148 80.802,287.941 80.741,287.762 80.741 C 287.584 80.741,287.410 80.665,287.377 80.573 C 287.343 80.480,286.981 80.348,286.574 80.280 C 286.167 80.212,285.750 80.134,285.648 80.107 C 285.546 80.080,285.255 80.003,285.000 79.936 C 283.963 79.664,282.271 79.603,273.194 79.509 L 263.702 79.411 263.749 106.048 M355.996 84.913 L 355.967 86.679 339.768 86.670 C 325.565 86.662,323.540 86.695,323.337 86.939 C 323.210 87.093,323.032 87.172,322.942 87.117 C 322.852 87.061,322.778 87.150,322.778 87.315 C 322.778 87.480,322.704 87.569,322.614 87.513 C 322.445 87.409,321.986 88.326,322.056 88.627 C 322.078 88.720,322.040 88.923,321.971 89.077 C 321.902 89.231,321.868 96.398,321.895 105.003 L 321.944 120.648 320.513 120.648 L 319.081 120.648 319.078 102.037 L 319.076 83.426 337.455 83.428 L 355.833 83.430 337.685 83.334 L 319.537 83.238 337.781 83.193 L 356.024 83.148 355.996 84.913 M279.343 86.874 C 279.405 86.936,279.716 86.957,280.034 86.920 C 280.351 86.883,280.710 86.935,280.831 87.035 C 280.952 87.136,281.356 87.240,281.729 87.266 C 282.102 87.293,282.407 87.382,282.407 87.465 C 282.407 87.547,282.485 87.567,282.580 87.508 C 282.675 87.449,282.808 87.492,282.876 87.602 C 282.945 87.713,283.117 87.758,283.259 87.704 C 283.402 87.649,283.519 87.672,283.519 87.754 C 283.519 87.882,284.448 88.401,284.584 88.350 C 284.723 88.297,285.717 89.334,285.642 89.455 C 285.593 89.533,285.638 89.626,285.741 89.661 C 285.845 89.695,285.968 89.925,286.016 90.172 C 286.064 90.419,286.173 90.669,286.259 90.727 C 286.524 90.907,286.683 91.515,286.783 92.731 C 286.947 94.722,286.967 95.762,286.843 95.839 C 286.777 95.879,286.716 96.170,286.707 96.484 C 286.675 97.619,284.846 100.317,284.028 100.437 C 283.870 100.460,283.608 100.590,283.445 100.725 C 283.282 100.861,283.148 100.909,283.148 100.833 C 283.148 100.757,283.044 100.778,282.917 100.879 C 282.716 101.038,281.574 101.342,281.019 101.385 C 280.917 101.392,280.733 101.462,280.609 101.539 C 280.486 101.616,280.111 101.677,279.776 101.673 C 279.441 101.670,277.646 101.712,275.787 101.766 L 272.407 101.865 272.407 94.364 L 272.407 86.864 274.491 86.812 C 277.707 86.731,279.219 86.750,279.343 86.874 M363.642 103.223 C 363.669 113.517,363.635 115.280,363.405 115.511 C 363.199 115.716,363.186 115.841,363.348 116.036 C 363.513 116.235,363.490 116.319,363.247 116.412 C 363.053 116.487,362.967 116.664,363.023 116.878 C 363.073 117.067,363.035 117.174,362.939 117.115 C 362.840 117.054,362.803 117.213,362.852 117.485 C 362.899 117.748,362.861 117.963,362.766 117.963 C 362.670 117.963,362.593 118.130,362.593 118.333 C 362.593 118.537,362.517 118.704,362.425 118.704 C 362.332 118.704,362.303 118.891,362.359 119.120 C 362.416 119.350,362.396 119.476,362.314 119.401 C 362.233 119.326,362.056 119.410,361.922 119.586 C 361.611 119.996,361.598 120.249,361.898 120.064 C 362.188 119.886,361.583 120.824,361.092 121.315 C 360.891 121.516,360.777 121.760,360.838 121.859 C 360.898 121.957,360.818 122.037,360.659 122.037 C 360.395 122.037,360.285 122.259,360.353 122.653 C 360.368 122.737,360.294 122.753,360.190 122.688 C 360.019 122.583,359.919 122.822,359.978 123.194 C 359.990 123.271,359.870 123.333,359.711 123.333 C 359.553 123.333,359.472 123.412,359.531 123.509 C 359.591 123.606,359.452 123.786,359.222 123.909 C 358.661 124.209,358.325 124.560,358.466 124.700 C 358.529 124.763,358.421 124.815,358.225 124.816 C 358.026 124.817,357.732 125.060,357.555 125.372 C 357.381 125.676,357.111 125.926,356.953 125.926 C 356.796 125.926,356.667 126.009,356.667 126.111 C 356.667 126.213,356.542 126.296,356.389 126.296 C 356.236 126.296,356.111 126.380,356.111 126.481 C 356.111 126.583,355.882 126.668,355.602 126.670 C 355.205 126.672,355.154 126.712,355.370 126.852 C 355.609 127.006,355.602 127.035,355.324 127.057 C 354.834 127.097,354.769 127.114,354.120 127.386 C 353.789 127.524,353.519 127.716,353.519 127.811 C 353.519 127.907,353.440 127.936,353.345 127.877 C 353.249 127.818,353.085 127.918,352.980 128.098 C 352.831 128.354,352.787 128.365,352.781 128.148 C 352.775 127.959,352.729 127.938,352.636 128.083 C 352.561 128.200,352.333 128.325,352.130 128.361 C 351.926 128.397,351.718 128.469,351.667 128.522 C 351.440 128.759,350.537 129.055,350.310 128.968 C 350.172 128.915,349.954 128.999,349.825 129.154 C 349.650 129.365,349.502 129.389,349.240 129.249 C 348.995 129.118,348.889 129.122,348.889 129.264 C 348.889 129.375,348.796 129.409,348.683 129.339 C 348.570 129.269,348.404 129.327,348.315 129.467 C 348.187 129.669,348.153 129.672,348.151 129.478 C 348.148 129.197,347.413 129.362,347.162 129.701 C 347.052 129.850,346.982 129.842,346.915 129.675 C 346.863 129.547,346.740 129.492,346.641 129.553 C 346.343 129.737,344.958 129.847,345.062 129.678 C 345.116 129.592,344.979 129.508,344.758 129.491 C 344.440 129.467,344.414 129.497,344.632 129.635 C 344.865 129.782,344.858 129.810,344.583 129.812 C 344.405 129.814,344.259 129.752,344.259 129.676 C 344.259 129.599,343.634 129.542,342.870 129.550 C 342.106 129.557,341.481 129.489,341.481 129.399 C 341.481 129.308,341.312 129.288,341.105 129.354 C 340.436 129.566,339.374 129.605,339.045 129.429 C 338.838 129.318,338.553 129.336,338.238 129.479 C 337.845 129.659,337.721 129.652,337.593 129.446 C 337.463 129.235,337.385 129.232,337.144 129.433 C 336.948 129.595,336.852 129.606,336.852 129.467 C 336.852 129.353,336.722 129.259,336.563 129.259 C 336.404 129.259,336.313 129.322,336.360 129.398 C 336.406 129.475,336.159 129.543,335.810 129.551 C 335.419 129.560,335.266 129.508,335.412 129.415 C 335.572 129.313,335.511 129.264,335.221 129.262 C 334.985 129.261,334.838 129.331,334.892 129.420 C 334.998 129.591,333.980 129.522,333.681 129.338 C 333.583 129.277,333.365 129.339,333.197 129.475 C 332.979 129.651,332.932 129.656,333.031 129.491 C 333.200 129.209,333.056 129.196,332.580 129.451 C 332.378 129.559,332.222 129.568,332.222 129.473 C 332.222 129.244,331.324 129.082,331.253 129.298 C 331.219 129.397,330.987 129.388,330.691 129.275 C 330.370 129.154,330.185 129.149,330.185 129.264 C 330.185 129.363,330.039 129.443,329.861 129.442 C 329.584 129.439,329.577 129.413,329.815 129.259 C 330.256 128.974,329.528 129.019,329.066 129.306 C 328.823 129.456,328.646 129.472,328.559 129.352 C 328.389 129.116,327.362 129.036,327.507 129.270 C 327.566 129.366,327.480 129.444,327.315 129.444 C 327.124 129.444,327.066 129.360,327.154 129.213 C 327.245 129.062,327.182 129.072,326.973 129.241 C 326.670 129.487,326.656 129.102,326.706 122.204 C 326.739 117.632,326.828 114.850,326.944 114.754 C 327.067 114.654,327.061 114.573,326.928 114.518 C 326.795 114.462,326.774 114.137,326.864 113.559 C 326.940 113.078,326.926 112.606,326.834 112.509 C 326.579 112.241,326.630 110.785,326.898 110.688 C 327.066 110.627,327.078 110.509,326.940 110.256 C 326.833 110.060,326.799 109.461,326.860 108.889 C 326.921 108.329,326.902 107.843,326.818 107.809 C 326.599 107.719,326.631 105.926,326.852 105.926 C 326.954 105.926,327.037 105.801,327.037 105.648 C 327.037 105.495,326.954 105.370,326.852 105.370 C 326.750 105.370,326.667 104.990,326.667 104.526 C 326.667 103.900,326.726 103.718,326.898 103.821 C 327.055 103.915,327.048 103.860,326.875 103.647 C 326.660 103.381,326.660 103.331,326.875 103.319 C 327.063 103.308,327.069 103.280,326.898 103.211 C 326.615 103.096,326.582 101.481,326.863 101.481 C 326.971 101.481,327.008 101.399,326.946 101.299 C 326.884 101.198,326.808 100.052,326.778 98.752 C 326.737 96.950,326.754 96.719,326.852 97.778 C 326.949 98.827,326.983 98.352,326.994 95.833 C 327.013 91.094,326.994 91.335,327.361 91.237 C 327.539 91.190,335.769 91.163,345.648 91.178 L 363.611 91.204 363.642 103.223 M332.291 97.075 C 332.247 97.147,332.088 97.159,331.939 97.102 C 331.789 97.044,331.667 97.099,331.667 97.222 C 331.667 97.349,331.542 97.399,331.379 97.337 C 331.213 97.273,331.140 97.304,331.206 97.411 C 331.268 97.512,331.190 97.645,331.031 97.706 C 330.873 97.767,330.784 97.882,330.833 97.963 C 330.883 98.043,330.781 98.164,330.606 98.231 C 330.334 98.336,330.327 98.378,330.561 98.526 C 330.752 98.647,330.763 98.699,330.597 98.701 C 330.230 98.705,330.444 99.961,330.882 100.369 C 331.088 100.561,331.307 100.668,331.369 100.606 C 331.431 100.544,331.481 100.591,331.481 100.710 C 331.481 100.829,331.606 100.926,331.759 100.926 C 331.912 100.926,332.037 101.012,332.037 101.118 C 332.037 101.250,332.148 101.250,332.395 101.118 C 332.634 100.990,336.954 100.941,345.404 100.970 L 358.056 101.015 345.278 101.111 L 332.500 101.208 345.417 101.252 C 353.934 101.281,358.333 101.233,358.333 101.111 C 358.333 101.009,358.466 100.926,358.628 100.926 C 358.952 100.926,359.829 100.299,359.843 100.058 C 359.847 99.975,359.935 99.752,360.037 99.561 C 360.175 99.303,360.165 99.250,360.000 99.352 C 359.829 99.457,359.827 99.398,359.988 99.096 C 360.120 98.850,360.129 98.704,360.012 98.704 C 359.910 98.704,359.872 98.585,359.928 98.440 C 359.983 98.295,359.856 98.004,359.644 97.792 C 359.432 97.581,359.266 97.359,359.275 97.299 C 359.283 97.240,359.228 97.136,359.152 97.068 C 359.077 97.000,359.075 97.049,359.148 97.176 C 359.221 97.303,359.190 97.407,359.079 97.407 C 358.968 97.407,358.829 97.282,358.771 97.130 C 358.712 96.977,358.585 96.852,358.488 96.852 C 358.391 96.852,358.362 96.934,358.425 97.035 C 358.487 97.136,358.429 97.177,358.297 97.126 C 357.914 96.980,332.381 96.930,332.291 97.075 M332.037 104.449 C 332.037 104.560,331.954 104.600,331.852 104.537 C 331.750 104.474,331.667 104.553,331.667 104.711 C 331.667 104.984,331.434 105.090,331.019 105.006 C 330.917 104.986,330.895 105.031,330.971 105.106 C 331.046 105.182,331.014 105.357,330.900 105.495 C 330.645 105.801,330.544 107.407,330.779 107.407 C 330.872 107.407,330.896 107.491,330.833 107.594 C 330.769 107.696,330.848 107.830,331.007 107.891 C 331.166 107.953,331.296 108.128,331.296 108.282 C 331.296 108.471,331.417 108.530,331.667 108.465 C 331.871 108.411,331.994 108.438,331.941 108.524 C 331.718 108.886,356.897 109.021,358.519 108.667 C 358.773 108.611,359.044 108.555,359.120 108.542 C 359.197 108.529,359.259 108.386,359.259 108.223 C 359.259 108.061,359.426 107.885,359.631 107.831 C 359.895 107.762,359.995 107.592,359.975 107.247 C 359.960 106.979,359.969 106.676,359.996 106.574 C 360.144 106.002,359.969 105.385,359.627 105.277 C 359.422 105.212,359.302 105.081,359.360 104.987 C 359.419 104.892,359.343 104.815,359.193 104.815 C 359.043 104.815,358.877 104.711,358.826 104.583 C 358.755 104.409,358.683 104.421,358.535 104.630 C 358.427 104.782,358.338 104.824,358.336 104.722 C 358.334 104.600,353.984 104.555,345.555 104.589 C 336.752 104.625,332.661 104.580,332.407 104.444 C 332.142 104.302,332.037 104.304,332.037 104.449 M281.296 108.576 C 281.296 108.658,281.546 108.687,281.852 108.638 C 282.157 108.590,282.407 108.609,282.407 108.680 C 282.407 108.752,282.595 108.823,282.824 108.838 C 283.449 108.881,284.630 109.297,284.630 109.474 C 284.630 109.560,284.785 109.630,284.975 109.630 C 285.387 109.630,286.708 110.637,286.530 110.816 C 286.461 110.884,286.592 110.990,286.821 111.049 C 287.063 111.113,287.346 111.420,287.498 111.783 C 287.641 112.126,287.851 112.407,287.964 112.407 C 288.078 112.407,288.119 112.491,288.056 112.593 C 287.993 112.694,288.029 112.778,288.137 112.778 C 288.245 112.778,288.316 112.840,288.294 112.917 C 288.272 112.993,288.353 113.232,288.473 113.448 C 288.593 113.664,288.642 113.889,288.581 113.949 C 288.521 114.010,288.597 114.375,288.749 114.761 C 289.071 115.576,289.050 118.613,288.718 119.233 C 288.605 119.443,288.528 119.681,288.546 119.761 C 288.564 119.842,288.468 120.157,288.333 120.463 C 288.199 120.769,288.102 121.081,288.118 121.157 C 288.135 121.234,288.065 121.296,287.963 121.296 C 287.861 121.296,287.778 121.421,287.778 121.574 C 287.778 121.727,287.694 121.852,287.593 121.852 C 287.491 121.852,287.407 121.927,287.407 122.019 C 287.407 122.255,286.144 123.490,286.025 123.370 C 285.970 123.316,285.926 123.383,285.926 123.519 C 285.926 123.654,285.880 123.720,285.824 123.664 C 285.769 123.608,285.535 123.730,285.305 123.935 C 284.857 124.334,282.812 125.043,282.559 124.887 C 282.476 124.835,282.303 124.858,282.176 124.938 C 281.807 125.168,281.623 125.180,276.898 125.284 L 272.407 125.384 272.407 116.955 L 272.407 108.527 275.602 108.477 C 280.483 108.399,281.296 108.413,281.296 108.576 M358.355 111.988 C 358.338 112.168,355.427 112.217,344.870 112.217 C 333.243 112.217,331.386 112.254,331.255 112.488 C 331.171 112.638,331.001 112.868,330.876 113.000 C 330.627 113.263,330.544 115.000,330.780 115.000 C 330.860 115.000,330.905 115.074,330.880 115.165 C 330.786 115.500,331.800 116.207,332.269 116.133 C 332.345 116.121,332.407 116.194,332.407 116.296 C 332.407 116.560,357.898 116.551,358.061 116.287 C 358.127 116.181,358.361 116.118,358.581 116.149 C 358.818 116.181,358.963 116.112,358.937 115.979 C 358.913 115.855,359.004 115.797,359.139 115.848 C 359.274 115.900,359.503 115.793,359.646 115.610 C 359.889 115.301,359.882 115.297,359.537 115.548 C 359.333 115.697,359.411 115.552,359.711 115.224 C 360.010 114.897,360.158 114.630,360.039 114.630 C 359.885 114.630,359.875 114.496,360.005 114.155 C 360.232 113.557,360.231 113.468,360.000 113.611 C 359.898 113.674,359.815 113.584,359.815 113.412 C 359.815 113.042,358.935 112.172,358.705 112.314 C 358.618 112.368,358.508 112.265,358.461 112.086 C 358.415 111.906,358.367 111.862,358.355 111.988 M332.222 119.609 C 332.222 119.706,331.930 119.883,331.572 120.001 C 331.215 120.119,330.970 120.292,331.028 120.385 C 331.086 120.479,331.066 120.556,330.983 120.557 C 330.746 120.559,330.384 121.468,330.574 121.585 C 330.673 121.647,330.667 121.829,330.559 122.030 C 330.424 122.283,330.447 122.397,330.652 122.476 C 330.802 122.534,330.926 122.755,330.926 122.968 C 330.926 123.181,331.009 123.304,331.111 123.241 C 331.213 123.178,331.296 123.261,331.296 123.426 C 331.296 123.591,331.380 123.674,331.481 123.611 C 331.583 123.548,331.667 123.585,331.667 123.693 C 331.667 123.801,331.755 123.889,331.863 123.889 C 331.971 123.889,332.020 123.826,331.973 123.750 C 331.926 123.674,335.983 123.653,340.990 123.704 L 350.093 123.796 350.794 123.373 C 351.179 123.140,351.442 122.863,351.377 122.758 C 351.312 122.654,351.413 122.451,351.602 122.308 C 351.871 122.104,351.885 122.047,351.667 122.040 C 351.420 122.032,351.420 122.011,351.667 121.852 C 351.819 121.753,351.850 121.671,351.735 121.670 C 351.619 121.668,351.481 121.500,351.428 121.296 C 351.363 121.048,351.401 120.968,351.545 121.054 C 351.774 121.191,351.391 120.665,350.917 120.193 C 350.522 119.799,350.874 119.813,341.435 119.821 C 335.755 119.826,332.841 119.763,332.593 119.630 C 332.371 119.511,332.222 119.503,332.222 119.609 " stroke="none" fill="#443ccc" fill-rule="evenodd"></path><path id="path1" d="M120.833 78.514 C 121.187 78.670,122.368 78.776,122.207 78.637 C 122.164 78.600,121.755 78.520,121.296 78.460 C 120.740 78.386,120.586 78.404,120.833 78.514 M123.799 79.079 C 123.846 79.154,124.090 79.255,124.344 79.303 C 124.597 79.351,124.766 79.330,124.719 79.255 C 124.673 79.180,124.428 79.079,124.175 79.030 C 123.922 78.982,123.753 79.004,123.799 79.079 M327.005 79.028 C 332.946 79.055,342.612 79.055,348.487 79.028 C 354.361 79.001,349.500 78.978,337.685 78.978 C 325.870 78.978,321.064 79.001,327.005 79.028 M359.259 79.075 C 359.259 79.176,359.322 79.246,359.398 79.230 C 359.660 79.174,360.278 79.519,360.596 79.898 C 360.771 80.107,360.916 80.188,360.920 80.079 C 360.929 79.782,360.048 79.012,359.626 78.947 C 359.424 78.916,359.259 78.974,359.259 79.075 M106.316 79.460 C 106.072 79.558,105.916 79.682,105.970 79.736 C 106.024 79.789,106.349 79.711,106.691 79.561 C 107.373 79.264,107.034 79.173,106.316 79.460 M152.868 106.111 C 152.868 120.829,152.890 126.850,152.917 119.491 C 152.943 112.132,152.943 100.090,152.917 92.731 C 152.890 85.373,152.868 91.394,152.868 106.111 M187.679 89.259 C 187.679 94.708,187.702 96.937,187.731 94.213 C 187.760 91.488,187.760 87.030,187.731 84.306 C 187.702 81.581,187.679 83.810,187.679 89.259 M208.237 96.296 C 208.237 105.616,208.259 109.428,208.287 104.769 C 208.315 100.109,208.315 92.484,208.287 87.824 C 208.259 83.164,208.237 86.977,208.237 96.296 M243.237 95.833 C 243.237 104.898,243.259 108.579,243.287 104.014 C 243.315 99.448,243.315 92.032,243.287 87.532 C 243.259 83.033,243.237 86.769,243.237 95.833 M104.352 80.185 C 103.944 80.374,103.736 80.531,103.889 80.534 C 104.042 80.537,104.458 80.380,104.815 80.185 C 105.639 79.734,105.327 79.734,104.352 80.185 M314.550 80.106 C 314.215 80.441,314.186 80.556,314.438 80.556 C 314.536 80.556,314.706 80.389,314.815 80.185 C 315.053 79.740,314.947 79.709,314.550 80.106 M102.163 81.141 C 101.570 81.450,101.123 81.740,101.169 81.786 C 101.258 81.876,103.519 80.770,103.519 80.636 C 103.519 80.478,103.226 80.587,102.163 81.141 M314.308 102.685 C 314.269 122.472,314.320 125.280,314.710 124.649 C 314.780 124.537,314.749 124.444,314.641 124.444 C 314.506 124.444,314.431 117.806,314.398 102.731 L 314.350 81.019 314.308 102.685 M337.593 83.286 C 354.306 83.329,355.665 83.356,355.880 83.646 C 356.090 83.931,356.111 83.922,356.111 83.554 L 356.111 83.148 337.824 83.194 L 319.537 83.239 337.593 83.286 M97.496 84.198 L 96.759 84.856 97.500 84.341 C 98.452 83.678,98.408 83.717,98.314 83.622 C 98.269 83.577,97.901 83.837,97.496 84.198 M319.163 101.944 C 319.163 111.926,319.186 115.982,319.213 110.958 C 319.240 105.934,319.240 97.768,319.213 92.810 C 319.185 87.852,319.163 91.963,319.163 101.944 M134.820 84.749 C 135.072 84.917,135.382 85.183,135.509 85.340 C 135.637 85.498,135.741 85.533,135.741 85.418 C 135.741 85.204,134.783 84.444,134.514 84.444 C 134.430 84.444,134.568 84.582,134.820 84.749 M95.454 85.963 C 95.052 86.391,94.889 86.621,95.092 86.473 C 95.694 86.036,96.523 85.185,96.348 85.185 C 96.259 85.185,95.857 85.535,95.454 85.963 M294.316 87.222 C 294.431 87.528,294.583 87.778,294.654 87.778 C 294.725 87.778,294.688 87.528,294.573 87.222 C 294.458 86.917,294.305 86.667,294.235 86.667 C 294.164 86.667,294.201 86.917,294.316 87.222 M322.578 87.208 C 322.281 87.506,322.040 87.860,322.044 87.995 C 322.047 88.130,322.156 88.051,322.285 87.818 C 322.414 87.586,322.577 87.454,322.649 87.525 C 322.720 87.596,322.778 87.511,322.778 87.335 C 322.778 87.159,322.855 87.063,322.950 87.122 C 323.045 87.180,323.176 87.142,323.241 87.037 C 323.306 86.932,323.449 86.902,323.560 86.970 C 323.680 87.044,323.708 87.008,323.629 86.880 C 323.421 86.544,323.161 86.625,322.578 87.208 M367.037 86.954 C 368.081 87.283,368.114 87.283,367.674 86.950 C 367.477 86.801,367.065 86.681,366.759 86.685 C 366.266 86.691,366.298 86.721,367.037 86.954 M93.946 87.679 C 93.660 87.931,93.475 88.139,93.536 88.142 C 93.597 88.146,93.888 87.940,94.184 87.685 C 94.480 87.431,94.664 87.223,94.594 87.222 C 94.523 87.222,94.231 87.428,93.946 87.679 M368.210 87.870 C 368.210 88.023,368.258 88.148,368.318 88.148 C 368.377 88.148,368.406 94.169,368.381 101.528 C 368.356 108.887,368.326 114.907,368.314 114.907 C 368.291 114.907,368.196 115.578,368.071 116.634 C 368.031 116.972,368.046 117.201,368.105 117.142 C 368.214 117.033,368.311 116.442,368.375 115.509 C 368.395 115.229,368.476 115.000,368.557 115.000 C 368.727 115.000,368.760 88.326,368.591 87.886 C 368.449 87.514,368.210 87.505,368.210 87.870 M284.630 88.485 C 284.630 88.702,285.534 89.528,285.648 89.414 C 285.699 89.363,285.491 89.098,285.185 88.826 C 284.880 88.553,284.630 88.400,284.630 88.485 M111.898 90.763 C 111.567 90.858,111.296 90.977,111.296 91.027 C 111.296 91.162,112.286 90.904,112.491 90.717 C 112.692 90.532,112.699 90.531,111.898 90.763 M286.409 91.296 C 286.472 91.653,286.599 92.069,286.690 92.222 C 286.888 92.551,286.698 91.591,286.453 91.019 C 286.346 90.769,286.332 90.859,286.409 91.296 M137.567 91.492 C 137.153 91.853,137.151 91.862,137.536 91.676 C 137.759 91.568,137.994 91.397,138.056 91.295 C 138.238 91.001,138.039 91.081,137.567 91.492 M336.329 91.250 C 341.184 91.277,349.184 91.277,354.106 91.250 C 359.028 91.223,355.056 91.200,345.278 91.200 C 335.500 91.200,331.473 91.222,336.329 91.250 M363.286 91.246 C 363.464 91.372,363.527 93.980,363.566 102.788 L 363.615 114.167 363.613 102.701 C 363.611 92.667,363.576 91.225,363.333 91.159 C 363.129 91.103,363.117 91.126,363.286 91.246 M121.481 91.569 C 121.481 91.711,122.618 92.258,122.714 92.163 C 122.762 92.115,122.533 91.942,122.205 91.779 C 121.563 91.458,121.481 91.435,121.481 91.569 M90.984 91.898 C 90.622 92.461,90.370 93.025,90.447 93.101 C 90.492 93.147,90.695 92.843,90.896 92.425 C 91.248 91.697,91.295 91.414,90.984 91.898 M108.134 92.545 C 107.828 92.891,107.803 92.958,108.056 92.756 C 108.259 92.593,108.593 92.367,108.796 92.254 C 109.077 92.098,109.096 92.047,108.875 92.043 C 108.714 92.040,108.381 92.266,108.134 92.545 M132.567 93.899 C 132.153 94.260,132.151 94.270,132.536 94.084 C 132.759 93.975,132.994 93.804,133.056 93.703 C 133.238 93.408,133.039 93.488,132.567 93.899 M106.203 94.075 C 105.708 94.622,105.973 94.708,106.482 94.166 C 106.721 93.912,106.831 93.704,106.728 93.704 C 106.624 93.704,106.388 93.871,106.203 94.075 M105.121 95.339 C 104.953 95.525,104.815 95.746,104.815 95.830 C 104.815 95.914,104.981 95.790,105.185 95.556 C 105.389 95.321,105.556 95.100,105.556 95.064 C 105.556 94.926,105.415 95.015,105.121 95.339 M295.417 95.648 C 295.419 96.056,295.457 96.200,295.501 95.970 C 295.546 95.740,295.544 95.406,295.498 95.229 C 295.451 95.052,295.415 95.241,295.417 95.648 M126.300 95.249 C 126.298 95.334,126.463 95.616,126.667 95.875 C 126.870 96.134,127.035 96.273,127.033 96.182 C 127.027 95.966,126.306 95.046,126.300 95.249 M127.567 96.307 C 127.153 96.668,127.151 96.677,127.536 96.491 C 127.759 96.383,127.994 96.211,128.056 96.110 C 128.238 95.816,128.039 95.896,127.567 96.307 M326.734 98.680 C 326.789 100.041,326.879 101.200,326.933 101.254 C 326.987 101.308,326.984 100.236,326.925 98.871 C 326.867 97.506,326.777 96.347,326.726 96.296 C 326.675 96.245,326.678 97.318,326.734 98.680 M331.781 96.881 C 330.927 97.377,330.002 98.463,330.643 98.217 C 330.797 98.158,330.878 98.035,330.821 97.944 C 330.765 97.852,330.791 97.778,330.880 97.778 C 330.969 97.778,331.221 97.610,331.441 97.406 C 331.661 97.201,331.906 97.044,331.985 97.057 C 332.065 97.070,332.213 97.070,332.315 97.056 C 332.853 96.985,358.200 97.048,358.318 97.120 C 358.394 97.167,358.457 97.085,358.457 96.936 C 358.457 96.589,332.376 96.535,331.781 96.881 M358.704 97.023 C 358.704 97.127,358.944 97.337,359.237 97.488 C 359.786 97.772,360.080 98.239,359.897 98.535 C 359.840 98.628,359.881 98.704,359.989 98.704 C 360.209 98.704,360.238 98.500,360.077 98.080 C 359.938 97.720,358.704 96.769,358.704 97.023 M103.513 98.158 C 103.401 98.368,103.337 98.621,103.370 98.722 C 103.404 98.823,103.527 98.651,103.644 98.341 C 103.887 97.697,103.815 97.595,103.513 98.158 M359.985 99.028 C 359.976 99.104,359.949 99.350,359.924 99.575 C 359.898 99.799,359.937 99.947,360.008 99.902 C 360.141 99.820,360.197 98.889,360.069 98.889 C 360.031 98.889,359.993 98.951,359.985 99.028 M284.831 99.643 C 284.586 99.848,284.253 100.089,284.092 100.179 C 283.931 100.269,283.850 100.393,283.911 100.454 C 283.972 100.515,284.346 100.273,284.743 99.917 C 285.511 99.224,285.577 99.023,284.831 99.643 M293.803 100.109 C 293.630 100.372,293.521 100.620,293.560 100.659 C 293.599 100.697,293.777 100.482,293.955 100.179 C 294.355 99.504,294.235 99.449,293.803 100.109 M359.259 100.648 C 359.132 100.801,358.872 100.926,358.681 100.926 C 358.490 100.926,358.333 101.009,358.333 101.111 C 358.333 101.213,358.412 101.296,358.508 101.296 C 358.703 101.296,359.790 100.385,359.606 100.376 C 359.542 100.373,359.386 100.495,359.259 100.648 M331.311 100.688 C 331.303 100.812,331.463 101.002,331.667 101.111 C 331.918 101.246,332.037 101.248,332.037 101.118 C 332.037 101.012,331.919 100.926,331.775 100.926 C 331.630 100.926,331.470 100.822,331.419 100.694 C 331.349 100.520,331.322 100.518,331.311 100.688 M293.148 100.860 C 293.148 100.959,292.888 101.307,292.571 101.632 C 292.253 101.956,292.082 102.222,292.191 102.222 C 292.455 102.222,293.417 100.948,293.267 100.797 C 293.201 100.732,293.148 100.760,293.148 100.860 M332.471 101.068 C 332.278 101.190,345.671 101.186,354.537 101.060 C 356.472 101.033,352.347 100.992,345.370 100.971 C 338.394 100.949,332.589 100.993,332.471 101.068 M87.708 101.581 C 87.645 101.747,87.600 102.021,87.609 102.191 C 87.617 102.361,87.698 102.254,87.788 101.954 C 87.962 101.369,87.900 101.080,87.708 101.581 M280.000 101.481 L 279.352 101.618 279.943 101.642 C 280.268 101.656,280.585 101.583,280.648 101.481 C 280.711 101.380,280.737 101.307,280.705 101.321 C 280.674 101.334,280.356 101.406,280.000 101.481 M326.667 102.315 C 326.667 102.773,326.750 103.148,326.852 103.148 C 326.954 103.148,327.037 102.773,327.037 102.315 C 327.037 101.856,326.954 101.481,326.852 101.481 C 326.750 101.481,326.667 101.856,326.667 102.315 M143.517 103.851 L 143.607 105.278 143.665 104.000 C 143.696 103.297,143.655 102.655,143.574 102.573 C 143.493 102.491,143.467 103.066,143.517 103.851 M290.370 103.349 L 289.907 103.726 290.509 103.432 C 290.840 103.271,291.111 103.099,291.111 103.051 C 291.111 102.867,290.816 102.985,290.370 103.349 M326.689 104.352 C 326.663 104.981,326.724 105.370,326.847 105.370 C 326.969 105.370,327.034 104.976,327.013 104.352 C 326.995 103.792,326.924 103.333,326.855 103.333 C 326.786 103.333,326.712 103.792,326.689 104.352 M332.448 104.456 C 332.655 104.577,337.246 104.623,345.550 104.589 C 353.947 104.555,358.360 104.601,358.411 104.722 C 358.454 104.824,358.496 104.762,358.504 104.583 C 358.518 104.278,357.774 104.260,345.324 104.265 C 336.415 104.269,332.233 104.331,332.448 104.456 M330.875 105.204 C 330.367 105.782,330.104 107.408,330.564 107.124 C 330.671 107.058,330.718 106.750,330.669 106.439 C 330.598 105.992,330.693 105.760,331.123 105.330 C 331.422 105.031,331.667 104.751,331.667 104.708 C 331.667 104.479,331.321 104.696,330.875 105.204 M326.667 106.852 C 326.667 107.361,326.750 107.778,326.852 107.778 C 326.954 107.778,327.037 107.361,327.037 106.852 C 327.037 106.343,326.954 105.926,326.852 105.926 C 326.750 105.926,326.667 106.343,326.667 106.852 M359.944 106.730 C 359.892 106.866,359.923 107.095,360.014 107.239 C 360.135 107.429,360.180 107.361,360.182 106.991 C 360.185 106.438,360.095 106.338,359.944 106.730 M187.680 119.815 C 187.680 126.995,187.703 129.933,187.731 126.343 C 187.760 122.752,187.760 116.877,187.731 113.287 C 187.703 109.697,187.680 112.634,187.680 119.815 M330.556 107.564 C 330.556 107.650,330.722 107.871,330.926 108.056 C 331.130 108.240,331.296 108.303,331.296 108.197 C 331.296 108.090,331.166 107.953,331.007 107.891 C 330.848 107.830,330.769 107.696,330.833 107.594 C 330.896 107.491,330.860 107.407,330.752 107.407 C 330.644 107.407,330.556 107.478,330.556 107.564 M295.148 108.517 C 295.321 108.822,295.531 109.072,295.614 109.073 C 295.698 109.074,295.588 108.824,295.370 108.519 C 294.862 107.805,294.742 107.804,295.148 108.517 M326.823 109.092 C 326.788 109.611,326.822 110.074,326.898 110.121 C 326.975 110.168,327.037 109.744,327.037 109.178 C 327.037 107.889,326.909 107.837,326.823 109.092 M331.676 108.509 C 331.467 108.641,331.519 108.706,331.916 108.806 C 332.196 108.876,332.476 108.882,332.539 108.819 C 332.603 108.755,332.469 108.704,332.242 108.704 C 332.015 108.704,331.881 108.621,331.944 108.519 C 332.085 108.291,332.024 108.289,331.676 108.509 M87.593 109.711 C 87.593 109.960,87.661 110.206,87.744 110.257 C 87.828 110.309,87.860 110.105,87.816 109.805 C 87.719 109.143,87.593 109.090,87.593 109.711 M285.711 110.185 C 286.133 110.491,286.532 110.741,286.598 110.741 C 286.664 110.741,286.403 110.491,286.019 110.185 C 285.634 109.880,285.235 109.630,285.132 109.630 C 285.029 109.630,285.290 109.880,285.711 110.185 M326.667 111.563 C 326.667 112.015,326.750 112.437,326.852 112.500 C 326.966 112.571,327.037 112.255,327.037 111.678 C 327.037 111.162,326.954 110.741,326.852 110.741 C 326.750 110.741,326.667 111.111,326.667 111.563 M332.037 112.048 C 332.037 112.156,331.941 112.185,331.823 112.112 C 331.690 112.029,331.660 112.061,331.743 112.197 C 331.817 112.316,331.945 112.371,332.028 112.320 C 332.111 112.269,338.064 112.224,345.256 112.220 C 353.613 112.215,358.333 112.147,358.333 112.032 C 358.333 111.917,353.593 111.852,345.185 111.852 C 336.055 111.852,332.037 111.912,332.037 112.048 M88.076 112.500 C 88.228 113.181,88.334 113.329,88.330 112.855 C 88.329 112.660,88.243 112.375,88.140 112.222 C 88.002 112.019,87.985 112.094,88.076 112.500 M358.519 112.233 C 358.519 112.341,358.596 112.381,358.691 112.323 C 358.926 112.177,359.753 112.970,359.843 113.426 C 359.896 113.695,359.957 113.731,360.064 113.560 C 360.161 113.407,359.986 113.097,359.569 112.680 C 358.926 112.037,358.519 111.864,358.519 112.233 M216.899 113.611 C 216.901 114.019,216.939 114.163,216.983 113.933 C 217.027 113.703,217.025 113.369,216.979 113.192 C 216.933 113.015,216.896 113.204,216.899 113.611 M297.430 113.523 C 297.710 114.352,297.868 114.513,297.698 113.796 C 297.626 113.491,297.487 113.159,297.389 113.060 C 297.292 112.960,297.310 113.169,297.430 113.523 M326.820 113.704 C 326.781 114.111,326.814 114.444,326.893 114.444 C 326.972 114.444,327.037 114.111,327.037 113.704 C 327.037 113.296,327.004 112.963,326.964 112.963 C 326.924 112.963,326.859 113.296,326.820 113.704 M330.370 114.169 C 330.370 114.860,330.475 115.115,330.972 115.637 C 331.590 116.285,332.407 116.667,332.407 116.309 C 332.407 116.200,332.345 116.121,332.269 116.133 C 331.800 116.207,330.786 115.500,330.880 115.165 C 330.905 115.074,330.857 115.000,330.773 115.000 C 330.688 115.000,330.636 114.625,330.656 114.167 C 330.676 113.708,330.620 113.333,330.531 113.333 C 330.443 113.333,330.370 113.710,330.370 114.169 M363.329 114.919 C 363.080 115.573,363.103 115.798,363.389 115.530 C 363.595 115.338,363.744 114.444,363.569 114.444 C 363.536 114.444,363.428 114.658,363.329 114.919 M88.704 114.882 C 88.704 115.103,89.235 116.296,89.333 116.296 C 89.384 116.296,89.296 115.984,89.138 115.602 C 88.841 114.885,88.704 114.658,88.704 114.882 M288.735 115.000 C 288.745 115.481,289.036 116.271,289.043 115.833 C 289.046 115.630,288.976 115.296,288.889 115.093 C 288.791 114.866,288.732 114.830,288.735 115.000 M326.810 115.602 C 326.911 116.899,326.993 117.010,327.016 115.880 C 327.027 115.294,326.972 114.815,326.893 114.815 C 326.814 114.815,326.777 115.169,326.810 115.602 M359.616 115.302 C 359.187 115.767,359.186 115.778,359.580 115.538 C 359.807 115.399,360.034 115.180,360.083 115.050 C 360.216 114.705,360.117 114.758,359.616 115.302 M363.050 116.120 C 362.874 116.405,363.115 116.589,363.353 116.351 C 363.486 116.218,363.489 116.115,363.362 116.036 C 363.259 115.972,363.118 116.010,363.050 116.120 M128.008 116.887 C 127.779 117.308,127.623 117.685,127.663 117.725 C 127.779 117.841,128.556 116.500,128.488 116.302 C 128.454 116.203,128.238 116.467,128.008 116.887 M358.056 116.296 C 357.993 116.398,358.066 116.481,358.219 116.481 C 358.372 116.481,358.548 116.398,358.611 116.296 C 358.674 116.194,358.601 116.111,358.448 116.111 C 358.295 116.111,358.119 116.194,358.056 116.296 M104.259 116.839 C 104.259 117.013,104.771 117.593,104.925 117.593 C 104.971 117.593,104.872 117.384,104.705 117.130 C 104.384 116.639,104.259 116.558,104.259 116.839 M326.830 117.917 C 326.798 119.225,326.875 121.193,326.961 121.281 C 327.003 121.323,327.037 120.386,327.037 119.198 C 327.037 117.118,326.875 116.112,326.830 117.917 M62.812 117.870 C 62.696 118.125,62.672 118.333,62.760 118.333 C 62.914 118.333,63.191 117.574,63.078 117.461 C 63.048 117.431,62.928 117.615,62.812 117.870 M367.805 117.716 C 367.668 117.865,367.602 118.034,367.660 118.092 C 367.718 118.150,367.690 118.336,367.599 118.507 C 367.497 118.697,367.507 118.920,367.623 119.084 C 367.778 119.303,367.794 119.294,367.711 119.034 C 367.655 118.859,367.694 118.663,367.798 118.598 C 367.903 118.534,367.946 118.370,367.893 118.234 C 367.841 118.098,367.890 117.957,368.001 117.919 C 368.113 117.882,368.170 117.760,368.130 117.648 C 368.081 117.515,367.969 117.538,367.805 117.716 M217.672 118.241 C 217.745 118.546,217.884 118.878,217.981 118.977 C 218.079 119.077,218.060 118.868,217.941 118.514 C 217.660 117.685,217.502 117.524,217.672 118.241 M105.926 119.013 C 105.926 119.250,106.637 119.906,106.760 119.784 C 106.810 119.734,106.642 119.497,106.388 119.259 C 106.134 119.020,105.926 118.909,105.926 119.013 M331.620 119.736 C 330.950 120.099,330.972 120.214,331.667 119.972 C 331.972 119.866,332.222 119.703,332.222 119.612 C 332.222 119.404,332.236 119.401,331.620 119.736 M332.593 119.633 C 332.766 119.748,336.057 119.811,341.389 119.803 C 346.074 119.795,350.053 119.845,350.231 119.914 C 350.410 119.983,350.556 119.956,350.556 119.854 C 350.556 119.753,350.424 119.619,350.263 119.557 C 349.741 119.357,332.288 119.432,332.593 119.633 M350.747 119.945 C 350.743 120.067,350.871 120.240,351.030 120.329 C 351.294 120.477,351.430 120.819,351.467 121.435 C 351.488 121.766,351.790 121.723,351.790 121.389 C 351.790 121.236,351.716 121.111,351.625 121.111 C 351.534 121.111,351.507 121.034,351.566 120.939 C 351.624 120.845,351.465 120.532,351.212 120.245 C 350.959 119.957,350.750 119.822,350.747 119.945 M49.074 120.189 C 49.074 120.295,49.203 120.431,49.360 120.492 C 49.794 120.658,49.845 120.478,49.436 120.223 C 49.207 120.080,49.074 120.068,49.074 120.189 M60.463 120.383 C 59.840 120.782,59.926 120.851,60.639 120.526 C 60.899 120.408,61.111 120.241,61.111 120.155 C 61.111 119.962,61.131 119.955,60.463 120.383 M209.077 120.293 C 209.078 120.488,209.164 120.773,209.268 120.926 C 209.405 121.129,209.422 121.054,209.331 120.648 C 209.179 119.967,209.073 119.819,209.077 120.293 M361.667 120.185 C 361.514 120.284,361.472 120.367,361.574 120.370 C 361.698 120.374,361.698 120.421,361.574 120.512 C 361.168 120.810,360.853 121.313,361.141 121.202 C 361.288 121.146,361.555 120.852,361.733 120.550 C 362.087 119.950,362.081 119.917,361.667 120.185 M367.037 120.450 C 367.037 120.595,366.911 120.840,366.758 120.993 C 366.604 121.147,366.549 121.316,366.635 121.369 C 366.721 121.422,366.928 121.178,367.096 120.825 C 367.264 120.473,367.319 120.185,367.219 120.185 C 367.119 120.185,367.037 120.304,367.037 120.450 M319.074 120.535 C 319.074 120.597,319.740 120.648,320.555 120.648 C 321.370 120.648,322.036 120.581,322.037 120.500 C 322.037 120.418,321.370 120.367,320.556 120.387 C 319.741 120.406,319.074 120.473,319.074 120.535 M330.594 120.694 C 330.406 121.076,330.305 122.349,330.476 122.178 C 330.541 122.114,330.624 121.750,330.661 121.369 C 330.697 120.989,330.835 120.610,330.966 120.527 C 331.141 120.416,331.145 120.375,330.979 120.373 C 330.855 120.372,330.682 120.516,330.594 120.694 M108.361 121.212 C 108.530 121.384,108.768 121.491,108.892 121.450 C 109.015 121.409,108.877 121.268,108.586 121.137 C 108.089 120.915,108.075 120.920,108.361 121.212 M219.089 121.119 C 219.081 121.276,219.470 121.776,219.953 122.230 C 220.818 123.042,220.821 123.044,220.184 122.319 C 219.828 121.913,219.487 121.538,219.426 121.485 C 219.365 121.432,219.267 121.264,219.209 121.111 C 219.117 120.869,219.101 120.870,219.089 121.119 M51.204 121.296 C 51.407 121.384,51.699 121.455,51.852 121.455 C 52.027 121.455,51.993 121.397,51.759 121.296 C 51.556 121.209,51.264 121.137,51.111 121.137 C 50.936 121.137,50.970 121.196,51.204 121.296 M123.009 121.445 C 122.678 121.604,122.407 121.807,122.407 121.896 C 122.407 122.025,122.919 121.804,123.688 121.343 C 124.035 121.135,123.482 121.218,123.009 121.445 M139.624 121.677 C 139.512 121.886,139.448 122.140,139.481 122.241 C 139.515 122.341,139.638 122.170,139.755 121.860 C 139.998 121.215,139.926 121.114,139.624 121.677 M109.259 121.629 C 109.259 121.774,110.393 122.261,110.495 122.160 C 110.526 122.129,110.260 121.965,109.905 121.795 C 109.550 121.626,109.259 121.551,109.259 121.629 M326.717 122.407 C 326.717 122.866,326.753 123.053,326.797 122.824 C 326.841 122.595,326.841 122.220,326.797 121.991 C 326.753 121.762,326.717 121.949,326.717 122.407 M92.227 122.130 C 92.232 122.385,92.917 123.256,93.026 123.145 C 93.075 123.096,92.914 122.806,92.670 122.500 C 92.425 122.194,92.226 122.028,92.227 122.130 M121.250 122.165 C 121.072 122.211,120.926 122.319,120.926 122.404 C 120.926 122.594,121.635 122.424,121.773 122.200 C 121.878 122.030,121.789 122.024,121.250 122.165 M239.711 122.639 L 239.167 123.241 239.769 122.697 C 240.330 122.190,240.455 122.037,240.312 122.037 C 240.281 122.037,240.010 122.308,239.711 122.639 M286.700 122.650 C 286.376 122.985,286.111 123.309,286.111 123.370 C 286.111 123.431,286.406 123.187,286.765 122.827 C 287.125 122.467,287.390 122.144,287.355 122.108 C 287.319 122.072,287.024 122.316,286.700 122.650 M111.318 122.491 C 111.380 122.553,111.708 122.683,112.046 122.780 C 112.384 122.877,112.582 122.885,112.488 122.798 C 112.291 122.619,111.144 122.317,111.318 122.491 M330.552 122.530 C 330.657 122.582,330.700 122.695,330.646 122.781 C 330.593 122.867,330.642 122.995,330.756 123.065 C 330.884 123.144,330.937 123.067,330.897 122.861 C 330.862 122.679,330.727 122.509,330.597 122.483 C 330.467 122.457,330.447 122.478,330.552 122.530 M76.842 123.082 C 76.739 123.352,76.604 123.656,76.540 123.759 C 76.476 123.862,76.512 123.892,76.620 123.825 C 76.824 123.699,77.269 122.593,77.115 122.593 C 77.067 122.593,76.944 122.813,76.842 123.082 M210.223 123.792 C 210.444 124.248,210.651 124.596,210.683 124.564 C 210.781 124.466,210.100 122.967,209.956 122.965 C 209.881 122.964,210.001 123.336,210.223 123.792 M350.746 123.435 C 350.392 123.685,350.200 123.889,350.319 123.889 C 350.438 123.889,350.769 123.683,351.054 123.432 C 351.717 122.849,351.574 122.851,350.746 123.435 M93.154 123.392 C 93.145 123.611,94.110 124.841,94.211 124.739 C 94.258 124.692,94.205 124.544,94.093 124.410 C 93.981 124.276,93.725 123.958,93.525 123.704 C 93.324 123.449,93.158 123.309,93.154 123.392 M137.782 124.531 C 137.370 125.088,136.852 125.713,136.630 125.920 C 136.408 126.127,136.311 126.296,136.414 126.296 C 136.581 126.296,138.245 124.351,138.592 123.750 C 138.934 123.158,138.455 123.620,137.782 124.531 M332.075 123.843 C 332.224 124.022,334.274 124.074,341.171 124.074 C 346.990 124.074,350.011 124.011,349.892 123.892 C 349.599 123.599,331.832 123.549,332.075 123.843 M284.815 124.074 C 284.458 124.269,284.292 124.431,284.444 124.433 C 284.597 124.435,284.931 124.273,285.185 124.074 C 285.767 123.619,285.646 123.619,284.815 124.074 M249.516 124.358 C 249.347 124.615,249.256 124.873,249.313 124.930 C 249.370 124.988,249.550 124.777,249.713 124.462 C 250.070 123.771,249.944 123.705,249.516 124.358 M326.739 126.481 C 326.739 127.856,326.768 128.419,326.804 127.731 C 326.840 127.044,326.840 125.919,326.804 125.231 C 326.768 124.544,326.739 125.106,326.739 126.481 M76.010 124.832 C 75.847 125.147,75.746 125.438,75.786 125.478 C 75.827 125.518,75.998 125.260,76.168 124.905 C 76.548 124.106,76.416 124.045,76.010 124.832 M364.580 124.670 C 364.423 124.902,363.995 125.405,363.629 125.787 C 362.964 126.481,362.663 127.163,363.299 126.535 C 363.944 125.898,365.052 124.434,364.959 124.341 C 364.907 124.290,364.737 124.438,364.580 124.670 M235.417 125.191 C 234.864 125.413,234.887 125.526,235.463 125.416 C 235.718 125.367,235.926 125.254,235.926 125.164 C 235.926 125.074,235.905 125.005,235.880 125.012 C 235.854 125.018,235.646 125.099,235.417 125.191 M280.787 125.128 C 280.965 125.174,281.257 125.174,281.435 125.128 C 281.613 125.081,281.468 125.043,281.111 125.043 C 280.755 125.043,280.609 125.081,280.787 125.128 M276.528 125.313 C 276.706 125.359,276.998 125.359,277.176 125.313 C 277.354 125.266,277.208 125.228,276.852 125.228 C 276.495 125.228,276.350 125.266,276.528 125.313 M357.407 125.294 C 357.407 125.388,357.178 125.570,356.898 125.697 C 356.065 126.077,355.397 126.658,355.787 126.663 C 355.965 126.665,356.111 126.583,356.111 126.481 C 356.111 126.380,356.236 126.296,356.389 126.296 C 356.542 126.296,356.667 126.213,356.667 126.111 C 356.667 126.009,356.781 125.926,356.922 125.926 C 357.233 125.926,357.691 125.408,357.526 125.242 C 357.461 125.177,357.407 125.200,357.407 125.294 M295.778 125.593 C 295.656 125.715,295.556 125.923,295.556 126.056 C 295.556 126.188,295.493 126.297,295.417 126.297 C 295.340 126.298,295.126 126.569,294.941 126.899 C 294.605 127.499,294.605 127.499,294.971 127.130 C 295.304 126.795,296.179 125.370,296.052 125.370 C 296.024 125.370,295.900 125.470,295.778 125.593 M315.370 125.536 C 315.370 125.709,315.810 125.926,316.162 125.926 C 316.275 125.926,316.205 125.804,316.008 125.654 C 315.593 125.341,315.370 125.299,315.370 125.536 M232.407 125.926 C 232.035 126.045,232.017 126.075,232.315 126.080 C 232.519 126.083,232.852 126.013,233.056 125.926 C 233.527 125.723,233.041 125.723,232.407 125.926 M248.235 126.546 C 247.782 127.052,247.002 128.148,247.095 128.148 C 247.246 128.148,248.583 126.484,248.498 126.403 C 248.459 126.365,248.340 126.429,248.235 126.546 M35.735 127.361 C 36.273 128.076,36.481 128.276,36.481 128.076 C 36.481 128.036,36.180 127.682,35.812 127.289 L 35.142 126.574 35.735 127.361 M362.363 127.209 C 362.217 127.419,362.028 127.528,361.944 127.453 C 361.861 127.377,361.856 127.425,361.934 127.560 C 362.044 127.751,362.159 127.717,362.446 127.409 C 362.649 127.191,362.773 126.971,362.723 126.920 C 362.672 126.869,362.510 126.999,362.363 127.209 M135.000 127.544 C 134.607 127.942,134.595 127.982,134.923 127.813 C 135.353 127.590,135.876 127.026,135.625 127.057 C 135.536 127.067,135.255 127.287,135.000 127.544 M213.116 128.257 C 213.524 128.863,214.074 129.391,214.074 129.177 C 214.074 129.107,213.772 128.742,213.403 128.367 C 212.778 127.733,212.758 127.725,213.116 128.257 M361.324 128.075 C 361.186 128.230,361.110 128.394,361.155 128.439 C 361.200 128.484,361.388 128.354,361.573 128.149 C 361.758 127.945,361.834 127.781,361.742 127.785 C 361.649 127.789,361.462 127.919,361.324 128.075 M72.899 128.804 C 72.405 129.258,72.075 129.630,72.166 129.630 C 72.256 129.630,72.698 129.255,73.148 128.796 C 74.193 127.731,74.060 127.735,72.899 128.804 M350.844 128.598 C 350.443 128.722,350.202 128.877,350.308 128.943 C 350.532 129.081,351.667 128.693,351.667 128.478 C 351.667 128.398,351.646 128.342,351.620 128.353 C 351.595 128.363,351.246 128.474,350.844 128.598 M37.037 128.676 C 37.037 128.888,37.758 129.526,37.870 129.414 C 37.920 129.364,37.753 129.143,37.499 128.922 C 37.245 128.702,37.037 128.591,37.037 128.676 M359.861 129.194 C 359.530 129.357,359.259 129.567,359.259 129.659 C 359.259 129.843,359.679 129.648,360.278 129.186 C 360.754 128.819,360.616 128.822,359.861 129.194 M326.667 129.220 C 326.667 129.299,326.889 129.382,327.161 129.405 C 327.433 129.427,327.597 129.388,327.527 129.317 C 327.338 129.128,326.667 129.052,326.667 129.220 M328.519 129.271 C 328.519 129.482,329.016 129.503,329.143 129.298 C 329.193 129.217,329.073 129.139,328.876 129.124 C 328.679 129.109,328.519 129.175,328.519 129.271 M330.648 129.259 C 331.154 129.477,331.296 129.477,331.296 129.259 C 331.296 129.157,331.067 129.080,330.787 129.087 C 330.336 129.099,330.320 129.118,330.648 129.259 M332.144 129.321 C 332.231 129.550,332.341 129.579,332.599 129.441 C 333.057 129.196,333.198 129.212,333.031 129.491 C 332.932 129.656,332.979 129.651,333.197 129.475 C 333.365 129.339,333.583 129.277,333.681 129.338 C 333.973 129.518,335.043 129.598,334.871 129.427 C 334.533 129.089,332.017 128.991,332.144 129.321 M335.412 129.415 C 335.266 129.508,335.419 129.560,335.810 129.551 C 336.159 129.543,336.406 129.475,336.360 129.398 C 336.248 129.216,335.710 129.225,335.412 129.415 M337.593 129.491 C 337.593 129.679,337.997 129.661,338.315 129.459 C 338.501 129.342,338.436 129.303,338.084 129.323 C 337.814 129.339,337.593 129.414,337.593 129.491 M339.132 129.480 C 339.335 129.606,340.916 129.516,341.062 129.370 C 341.102 129.330,340.637 129.309,340.028 129.324 C 339.420 129.339,339.016 129.409,339.132 129.480 M341.481 129.401 C 341.481 129.479,341.815 129.552,342.222 129.563 C 342.630 129.573,342.963 129.510,342.963 129.421 C 342.963 129.332,342.630 129.259,342.222 129.259 C 341.815 129.259,341.481 129.323,341.481 129.401 M344.260 129.672 C 344.259 129.841,346.441 129.732,346.619 129.554 C 346.692 129.481,346.191 129.448,345.506 129.479 C 344.821 129.511,344.260 129.598,344.260 129.672 M131.898 129.821 C 131.669 129.913,131.481 130.032,131.481 130.087 C 131.481 130.266,131.776 130.189,132.141 129.913 C 132.550 129.603,132.493 129.582,131.898 129.821 M291.713 130.041 C 291.484 130.151,291.296 130.314,291.296 130.403 C 291.296 130.492,291.505 130.428,291.759 130.261 C 292.438 129.816,292.415 129.702,291.713 130.041 M358.524 129.993 C 358.374 130.088,358.297 130.210,358.352 130.266 C 358.408 130.321,358.614 130.245,358.810 130.097 C 359.200 129.801,358.963 129.715,358.524 129.993 M39.156 130.469 C 39.353 130.618,39.599 130.741,39.700 130.741 C 39.802 130.741,39.724 130.618,39.526 130.469 C 39.328 130.319,39.083 130.197,38.981 130.197 C 38.880 130.197,38.958 130.319,39.156 130.469 M100.926 130.359 C 100.926 130.430,101.218 130.626,101.574 130.796 C 101.931 130.966,102.220 131.044,102.216 130.969 C 102.208 130.795,100.926 130.189,100.926 130.359 M69.820 130.919 C 69.670 131.013,69.593 131.136,69.649 131.192 C 69.704 131.247,69.910 131.171,70.106 131.022 C 70.497 130.727,70.259 130.641,69.820 130.919 M216.343 130.868 C 216.521 130.915,216.667 131.030,216.667 131.125 C 216.667 131.219,216.760 131.296,216.875 131.296 C 217.018 131.296,217.011 131.210,216.852 131.019 C 216.725 130.866,216.486 130.750,216.320 130.762 C 216.066 130.780,216.069 130.797,216.343 130.868 M289.918 131.024 C 289.461 131.370,289.762 131.366,290.370 131.019 C 290.639 130.865,290.717 130.754,290.556 130.753 C 290.403 130.753,290.116 130.875,289.918 131.024 M68.472 131.609 C 68.294 131.656,68.148 131.774,68.148 131.872 C 68.148 131.975,68.325 131.958,68.565 131.833 C 69.259 131.472,69.234 131.410,68.472 131.609 M242.013 131.790 C 241.781 132.071,241.799 132.077,242.222 131.857 C 242.843 131.534,242.890 131.481,242.554 131.481 C 242.396 131.481,242.153 131.620,242.013 131.790 M321.866 131.781 C 321.851 132.206,322.564 133.238,322.747 133.055 C 322.809 132.993,322.739 132.868,322.591 132.777 C 322.444 132.686,322.223 132.336,322.101 132.000 C 321.937 131.545,321.876 131.489,321.866 131.781 M41.503 131.750 C 41.565 131.812,41.893 131.943,42.231 132.040 C 42.569 132.136,42.768 132.145,42.673 132.058 C 42.476 131.878,41.329 131.576,41.503 131.750 M354.074 132.091 C 353.433 132.437,353.432 132.440,353.981 132.318 C 354.287 132.251,354.615 132.120,354.710 132.027 C 355.035 131.709,354.723 131.741,354.074 132.091 M67.454 132.043 C 67.225 132.135,67.037 132.255,67.037 132.309 C 67.037 132.489,67.332 132.411,67.696 132.136 C 68.106 131.826,68.048 131.804,67.454 132.043 M220.822 132.880 C 221.221 133.177,221.559 133.239,221.403 132.985 C 221.347 132.896,221.113 132.775,220.883 132.717 C 220.478 132.615,220.476 132.620,220.822 132.880 M351.262 132.912 C 351.117 133.086,351.141 133.148,351.355 133.148 C 351.515 133.148,351.694 133.068,351.754 132.971 C 351.814 132.874,351.986 132.841,352.136 132.898 C 352.285 132.956,352.407 132.911,352.407 132.800 C 352.407 132.527,351.508 132.615,351.262 132.912 M124.028 132.910 C 123.748 132.953,123.519 133.059,123.519 133.146 C 123.519 133.278,124.396 133.126,125.093 132.874 C 125.329 132.788,124.690 132.810,124.028 132.910 M350.000 133.179 C 349.644 133.276,349.206 133.356,349.028 133.356 C 348.850 133.356,348.704 133.435,348.704 133.530 C 348.704 133.626,348.912 133.704,349.167 133.704 C 349.421 133.704,349.630 133.638,349.630 133.558 C 349.630 133.429,349.922 133.356,350.694 133.291 C 350.822 133.280,350.926 133.202,350.926 133.117 C 350.926 132.938,350.864 132.942,350.000 133.179 M46.481 133.333 C 47.115 133.536,47.602 133.536,47.130 133.333 C 46.926 133.246,46.593 133.177,46.389 133.180 C 46.091 133.184,46.109 133.214,46.481 133.333 M237.037 133.333 L 236.574 133.482 237.072 133.500 C 237.346 133.510,237.622 133.435,237.685 133.333 C 237.815 133.123,237.694 133.123,237.037 133.333 M322.963 133.322 C 322.963 133.631,323.359 133.753,323.581 133.512 C 323.746 133.333,323.742 133.310,323.565 133.410 C 323.438 133.482,323.333 133.452,323.333 133.344 C 323.333 133.236,323.250 133.148,323.148 133.148 C 323.046 133.148,322.963 133.227,322.963 133.322 M223.491 133.565 C 223.585 133.659,223.858 133.704,224.099 133.666 C 224.470 133.608,224.444 133.582,223.929 133.497 C 223.561 133.436,223.389 133.463,223.491 133.565 M329.769 133.657 C 333.053 133.686,338.428 133.686,341.713 133.657 C 344.998 133.629,342.310 133.606,335.741 133.606 C 329.171 133.606,326.484 133.629,329.769 133.657 " stroke="none" fill="#4434cc" fill-rule="evenodd"></path><path id="path2" d="" stroke="none" fill="#483ccc" fill-rule="evenodd"></path><path id="path3" d="" stroke="none" fill="#483ccc" fill-rule="evenodd"></path><path id="path4" d="" stroke="none" fill="#483ccc" fill-rule="evenodd"></path></g></svg>