<?xml version="1.0" encoding="UTF-8"?>
<svg xmlns="http://www.w3.org/2000/svg" xmlns:xlink="http://www.w3.org/1999/xlink" width="300px" height="299px" viewBox="0 0 299 299" version="1.1">
<g id="surface1">
<path style=" stroke:none;fill-rule:nonzero;fill:rgb(94.901961%,94.901961%,94.901961%);fill-opacity:1;" d="M 253.949219 133.023438 C 246.460938 141.457031 245.132812 152.765625 243.933594 164.304688 C 243.039062 172.835938 242.214844 181.496094 239.011719 189.210938 C 236.308594 195.621094 232.003906 201.222656 226.511719 205.476562 C 226.023438 205.863281 225.519531 206.234375 225.007812 206.597656 L 197.699219 206.597656 C 197.660156 206.226562 197.625 205.847656 197.59375 205.476562 C 196.417969 191.4375 199.59375 177.375 206.683594 165.210938 C 209.523438 160.449219 212.949219 156.0625 216.878906 152.15625 C 221.136719 159.617188 226.394531 166.828125 226.394531 166.828125 L 224.019531 145.917969 C 232.800781 139.242188 243.074219 134.8125 253.949219 133.023438 Z M 253.949219 133.023438 "/>
<path style=" stroke:none;fill-rule:nonzero;fill:rgb(94.901961%,94.901961%,94.901961%);fill-opacity:1;" d="M 298.902344 157.660156 C 280.71875 164.960938 275.359375 188.40625 260.550781 201.269531 C 258.722656 202.851562 256.753906 204.261719 254.664062 205.476562 C 253.992188 205.871094 253.304688 206.25 252.609375 206.597656 L 213.296875 206.597656 C 213.390625 206.226562 213.480469 205.847656 213.578125 205.476562 C 217.769531 189.167969 228.160156 174.472656 242.289062 165.328125 C 242.832031 164.976562 243.378906 164.632812 243.933594 164.304688 C 248.121094 161.785156 252.578125 159.738281 257.214844 158.203125 C 257.710938 166.78125 259.210938 175.59375 259.210938 175.59375 L 266.382812 155.8125 C 277.210938 153.765625 288.371094 154.398438 298.902344 157.660156 Z M 298.902344 157.660156 "/>
<path style=" stroke:none;fill-rule:nonzero;fill:rgb(80%,80%,80%);fill-opacity:1;" d="M 298.84375 206.039062 C 298.847656 206.1875 298.789062 206.328125 298.683594 206.433594 C 298.578125 206.539062 298.4375 206.597656 298.289062 206.597656 L 0.558594 206.597656 C 0.25 206.597656 0 206.347656 0 206.039062 C 0 205.726562 0.25 205.476562 0.558594 205.476562 L 298.289062 205.476562 C 298.4375 205.476562 298.578125 205.535156 298.683594 205.640625 C 298.789062 205.746094 298.847656 205.890625 298.84375 206.039062 Z M 298.84375 206.039062 "/>
<path style=" stroke:none;fill-rule:nonzero;fill:rgb(18.431373%,18.039216%,25.490196%);fill-opacity:1;" d="M 187.183594 210.207031 L 135.15625 210.207031 C 125.046875 210.214844 116.847656 201.992188 116.847656 191.851562 C 116.847656 181.710938 125.046875 173.488281 135.15625 173.496094 L 187.183594 173.496094 C 197.292969 173.488281 205.492188 181.710938 205.492188 191.851562 C 205.492188 201.992188 197.292969 210.214844 187.183594 210.207031 Z M 187.183594 210.207031 "/>
<path style=" stroke:none;fill-rule:nonzero;fill:rgb(100%,71.372549%,71.372549%);fill-opacity:1;" d="M 139.167969 277.140625 L 146.253906 282.21875 L 169.152344 257.21875 L 158.691406 249.722656 Z M 139.167969 277.140625 "/>
<path style=" stroke:none;fill-rule:nonzero;fill:rgb(18.431373%,18.039216%,25.490196%);fill-opacity:1;" d="M 139.015625 273.523438 L 141.007812 274.953125 L 151.058594 277.355469 L 152.96875 283.523438 C 157.878906 287.042969 159.015625 293.890625 155.507812 298.816406 L 155.304688 299.105469 L 132.457031 282.734375 Z M 139.015625 273.523438 "/>
<path style=" stroke:none;fill-rule:nonzero;fill:rgb(18.431373%,18.039216%,25.490196%);fill-opacity:1;" d="M 179.394531 203.09375 L 172.605469 193.078125 C 171.773438 182.210938 180.113281 172.640625 190.976562 172.425781 C 197.027344 172.308594 202.9375 175.21875 206.09375 185.0625 C 214.203125 210.375 159.871094 268.941406 159.871094 268.941406 L 148.527344 263.144531 L 147.445312 256.113281 L 153.183594 251.875 L 152.695312 245.847656 L 158.234375 242.625 Z M 179.394531 203.09375 "/>
<path style=" stroke:none;fill-rule:nonzero;fill:rgb(42.352941%,38.823529%,100%);fill-opacity:1;" d="M 161.660156 82.027344 L 170.050781 88.4375 L 180.171875 91.554688 C 180.171875 91.554688 184.355469 150.59375 188.125 154.375 C 191.894531 158.160156 188.496094 158.261719 189.253906 163.171875 C 190.011719 168.085938 191.851562 178.15625 191.851562 178.15625 C 166.402344 191.667969 144.464844 192.03125 126.84375 176.21875 C 126.378906 174.203125 127.375 172.136719 129.238281 171.25 C 132.519531 169.503906 126.214844 161.355469 128.894531 159.992188 C 131.574219 158.632812 127.804688 146.8125 127.804688 146.8125 L 130.277344 122.15625 L 128.324219 118.214844 L 133.09375 94.09375 L 141.367188 91.0625 L 144.671875 83.074219 Z M 161.660156 82.027344 "/>
<path style=" stroke:none;fill-rule:nonzero;fill:rgb(100%,71.372549%,71.372549%);fill-opacity:1;" d="M 169.667969 61.804688 C 169.667969 71.003906 162.234375 78.457031 153.066406 78.457031 C 143.898438 78.457031 136.46875 71.003906 136.46875 61.804688 C 136.46875 52.609375 143.898438 45.15625 153.066406 45.15625 C 162.234375 45.15625 169.667969 52.609375 169.667969 61.804688 Z M 169.667969 61.804688 "/>
<path style=" stroke:none;fill-rule:nonzero;fill:rgb(100%,71.372549%,71.372549%);fill-opacity:1;" d="M 99.601562 30.136719 C 101.015625 31.765625 101.640625 33.9375 101.300781 36.074219 C 100.964844 38.207031 99.703125 40.078125 97.859375 41.191406 L 103.144531 66.574219 L 90.65625 61.613281 L 87.546875 38.269531 C 85.855469 34.960938 86.898438 30.90625 89.976562 28.832031 C 93.050781 26.757812 97.1875 27.320312 99.601562 30.136719 Z M 99.601562 30.136719 "/>
<path style=" stroke:none;fill-rule:nonzero;fill:rgb(42.352941%,38.823529%,100%);fill-opacity:1;" d="M 87.671875 47.101562 L 92.722656 93.765625 L 92.902344 93.851562 C 93.050781 93.925781 99.449219 97.074219 107.304688 100.824219 C 108.628906 101.457031 108.4375 104.195312 109.824219 104.851562 C 110.777344 105.300781 113.296875 103.664062 114.261719 104.117188 C 122.847656 108.144531 131.527344 112.0625 134.988281 113.121094 C 139.660156 114.609375 144.699219 114.445312 149.265625 112.660156 L 149.375 112.609375 L 149.429688 112.503906 C 151.835938 107.988281 150.792969 102.402344 146.921875 99.066406 C 137.808594 91.292969 127.019531 85.753906 115.40625 82.878906 L 108.796875 81.253906 L 100.335938 48.011719 Z M 87.671875 47.101562 "/>
<path style=" stroke:none;fill-rule:nonzero;fill:rgb(18.431373%,18.039216%,25.490196%);fill-opacity:1;" d="M 139.546875 47.5 C 140.914062 43.515625 147.707031 40.753906 158.726562 40.371094 C 169.742188 39.984375 172.535156 53.007812 172.535156 53.007812 C 179.890625 58.992188 164.683594 75.015625 163.945312 74.4375 L 164.277344 71.429688 C 164.824219 66.441406 167.152344 62.550781 164.191406 57.355469 L 161.351562 57.386719 L 155.957031 58.429688 C 155.269531 58.5625 154.574219 58.214844 154.265625 57.582031 C 153.953125 56.945312 154.105469 56.183594 154.632812 55.71875 L 154.683594 55.671875 L 154.5625 55.484375 C 152.660156 56.359375 150.703125 57.167969 148.628906 57.289062 C 146.292969 57.429688 143.738281 56.496094 142.621094 54.433594 C 142.320312 53.867188 142.136719 53.246094 142.082031 52.609375 C 138.933594 53.871094 137.492188 57.765625 137.492188 57.765625 C 137.492188 57.765625 138.183594 51.484375 139.546875 47.5 Z M 139.546875 47.5 "/>
<path style=" stroke:none;fill-rule:nonzero;fill:rgb(24.705882%,23.921569%,33.72549%);fill-opacity:1;" d="M 130.792969 13.691406 C 128.867188 6.628906 122.917969 1.410156 115.6875 0.4375 C 115.609375 0.425781 115.535156 0.441406 115.457031 0.4375 C 115.355469 0.40625 115.253906 0.378906 115.148438 0.363281 C 98.648438 -1.890625 79.601562 6.441406 72.726562 22.953125 C 69.324219 18.191406 63.894531 15.117188 58.089844 15.421875 C 50.683594 15.8125 44.148438 21.503906 42.144531 28.988281 C 41.917969 29.910156 42.289062 30.875 43.074219 31.40625 C 44.371094 32.382812 45.253906 33.066406 46.84375 33.425781 C 49.84375 34.09375 52.847656 34.707031 55.867188 35.265625 C 61.753906 36.351562 67.675781 37.234375 73.625 37.902344 C 85.695312 39.269531 97.851562 39.753906 109.996094 39.355469 C 114.039062 39.222656 117.9375 39.082031 121.644531 37.195312 C 124.367188 35.765625 126.671875 33.644531 128.324219 31.042969 C 131.558594 26.085938 132.414062 19.429688 130.792969 13.691406 Z M 130.792969 13.691406 "/>
<path style=" stroke:none;fill-rule:nonzero;fill:rgb(100%,100%,100%);fill-opacity:1;" d="M 128.972656 14.566406 C 128.082031 11.5 126.300781 8.773438 123.855469 6.730469 C 121.316406 4.652344 118.246094 3.328125 114.992188 2.90625 L 114.796875 2.90625 L 114.613281 2.871094 C 114.554688 2.855469 114.496094 2.839844 114.433594 2.832031 C 108.996094 2.179688 103.480469 2.578125 98.1875 3.996094 C 88.011719 6.679688 78.378906 13.035156 73.878906 23.289062 L 73.234375 24.761719 L 72.277344 23.476562 C 69.113281 19.28125 64.371094 16.832031 59.472656 16.832031 C 59.226562 16.832031 58.984375 16.835938 58.734375 16.847656 C 51.929688 17.1875 45.867188 22.097656 43.984375 28.785156 C 43.886719 29.269531 44.109375 29.765625 44.535156 30.011719 L 44.609375 30.070312 C 45.816406 30.929688 46.542969 31.453125 47.878906 31.738281 C 50.789062 32.359375 53.75 32.933594 56.679688 33.445312 C 62.359375 34.441406 68.1875 35.265625 74 35.890625 C 84.277344 36.996094 94.613281 37.476562 104.949219 37.332031 C 106.464844 37.3125 107.972656 37.28125 109.480469 37.234375 C 113.363281 37.117188 117.03125 37 120.507812 35.320312 C 123 34.082031 125.128906 32.214844 126.6875 29.90625 C 129.667969 25.378906 130.503906 19.765625 128.972656 14.566406 Z M 128.972656 14.566406 "/>
<path style=" stroke:none;fill-rule:nonzero;fill:rgb(42.352941%,38.823529%,100%);fill-opacity:1;" d="M 104.949219 37.332031 C 94.613281 37.476562 84.277344 36.996094 74 35.890625 C 68.1875 35.265625 62.359375 34.441406 56.679688 33.445312 C 53.75 32.933594 50.789062 32.359375 47.878906 31.738281 C 46.542969 31.453125 45.816406 30.929688 44.609375 30.070312 L 44.535156 30.011719 C 44.109375 29.765625 43.886719 29.269531 43.984375 28.785156 C 45.867188 22.097656 51.929688 17.1875 58.734375 16.847656 C 58.984375 16.835938 59.226562 16.832031 59.472656 16.832031 C 64.371094 16.832031 69.113281 19.28125 72.277344 23.476562 L 73.234375 24.761719 L 73.878906 23.289062 C 78.378906 13.035156 88.011719 6.679688 98.1875 3.996094 C 100.238281 5.859375 101.5625 8.710938 100.8125 11.359375 C 99.90625 14.570312 96.328125 16.570312 95.726562 19.851562 C 95.179688 22.847656 97.316406 25.632812 99.511719 27.726562 C 101.710938 29.820312 104.257812 31.921875 104.894531 34.894531 C 105.0625 35.695312 105.082031 36.523438 104.949219 37.332031 Z M 104.949219 37.332031 "/>
<path style=" stroke:none;fill-rule:nonzero;fill:rgb(42.352941%,38.823529%,100%);fill-opacity:1;" d="M 122.21875 19.746094 C 122.21875 24.417969 118.441406 28.207031 113.785156 28.207031 C 109.125 28.207031 105.347656 24.417969 105.347656 19.746094 C 105.347656 15.070312 109.125 11.28125 113.785156 11.28125 C 118.441406 11.28125 122.21875 15.070312 122.21875 19.746094 Z M 122.21875 19.746094 "/>
<path style=" stroke:none;fill-rule:nonzero;fill:rgb(100%,100%,100%);fill-opacity:1;" d="M 117.320312 18.84375 L 114.15625 15.667969 C 113.949219 15.460938 113.617188 15.460938 113.410156 15.667969 L 110.246094 18.84375 C 110.042969 19.050781 110.042969 19.382812 110.25 19.589844 C 110.453125 19.796875 110.789062 19.796875 110.992188 19.589844 L 113.257812 17.320312 L 113.257812 23.449219 C 113.257812 23.738281 113.492188 23.976562 113.785156 23.976562 C 114.074219 23.976562 114.3125 23.738281 114.3125 23.449219 L 114.3125 17.320312 L 116.574219 19.589844 C 116.78125 19.796875 117.113281 19.796875 117.320312 19.589844 C 117.527344 19.382812 117.527344 19.050781 117.320312 18.84375 Z M 117.320312 18.84375 "/>
<path style=" stroke:none;fill-rule:nonzero;fill:rgb(100%,71.372549%,71.372549%);fill-opacity:1;" d="M 184.378906 270.058594 L 177.734375 275.703125 L 152.867188 252.675781 L 162.675781 244.34375 Z M 184.378906 270.058594 "/>
<path style=" stroke:none;fill-rule:nonzero;fill:rgb(18.431373%,18.039216%,25.490196%);fill-opacity:1;" d="M 191.527344 275.078125 L 170.101562 293.28125 L 169.871094 293.007812 C 165.972656 288.386719 166.542969 281.46875 171.148438 277.558594 L 172.546875 271.253906 L 182.367188 268.027344 L 184.238281 266.441406 Z M 191.527344 275.078125 "/>
<path style=" stroke:none;fill-rule:nonzero;fill:rgb(18.431373%,18.039216%,25.490196%);fill-opacity:1;" d="M 143.308594 206.386719 L 148.800781 194.4375 C 148.742188 183.535156 139.644531 174.683594 128.800781 175.367188 C 122.761719 175.75 117.109375 179.136719 114.769531 189.207031 C 108.761719 215.101562 167.710938 268.992188 167.710938 268.992188 L 178.542969 262.277344 L 179.042969 255.183594 L 172.976562 251.433594 L 172.972656 245.382812 L 167.1875 242.628906 Z M 143.308594 206.386719 "/>
<path style=" stroke:none;fill-rule:nonzero;fill:rgb(90.196078%,90.196078%,90.196078%);fill-opacity:1;" d="M 139.039062 183.367188 L 139.039062 141.855469 C 139.039062 140.105469 140.453125 138.6875 142.195312 138.6875 L 173.449219 138.6875 C 175.191406 138.6875 176.605469 140.105469 176.605469 141.855469 L 176.605469 183.367188 C 176.605469 185.113281 175.191406 186.53125 173.449219 186.535156 L 142.195312 186.535156 C 140.453125 186.53125 139.039062 185.113281 139.039062 183.367188 Z M 139.039062 183.367188 "/>
<path style=" stroke:none;fill-rule:nonzero;fill:rgb(100%,100%,100%);fill-opacity:1;" d="M 141.433594 170.828125 L 141.433594 144.140625 C 141.4375 142.503906 142.761719 141.175781 144.394531 141.175781 L 171.25 141.175781 C 172.882812 141.175781 174.207031 142.503906 174.210938 144.140625 L 174.210938 181.078125 C 174.207031 182.71875 172.882812 184.046875 171.25 184.046875 L 154.613281 184.046875 C 147.339844 184.039062 141.445312 178.125 141.433594 170.828125 Z M 141.433594 170.828125 "/>
<path style=" stroke:none;fill-rule:nonzero;fill:rgb(90.196078%,90.196078%,90.196078%);fill-opacity:1;" d="M 145.785156 151.585938 C 145.785156 149.988281 147.078125 148.6875 148.675781 148.6875 L 167.304688 148.6875 C 168.902344 148.6875 170.195312 149.984375 170.195312 151.585938 C 170.195312 153.1875 168.902344 154.488281 167.304688 154.488281 L 148.675781 154.488281 C 147.078125 154.484375 145.785156 153.1875 145.785156 151.585938 Z M 145.785156 151.585938 "/>
<path style=" stroke:none;fill-rule:nonzero;fill:rgb(90.196078%,90.196078%,90.196078%);fill-opacity:1;" d="M 145.785156 160.609375 C 145.785156 159.007812 147.078125 157.710938 148.675781 157.710938 L 167.304688 157.710938 C 168.902344 157.710938 170.195312 159.007812 170.195312 160.609375 C 170.195312 162.210938 168.902344 163.511719 167.304688 163.511719 L 148.675781 163.511719 C 147.078125 163.507812 145.785156 162.210938 145.785156 160.609375 Z M 145.785156 160.609375 "/>
<path style=" stroke:none;fill-rule:nonzero;fill:rgb(90.196078%,90.196078%,90.196078%);fill-opacity:1;" d="M 145.785156 169.632812 C 145.785156 168.03125 147.078125 166.734375 148.675781 166.734375 L 167.304688 166.734375 C 168.902344 166.734375 170.195312 168.03125 170.195312 169.632812 C 170.195312 171.234375 168.902344 172.53125 167.304688 172.53125 L 148.675781 172.53125 C 147.078125 172.53125 145.785156 171.234375 145.785156 169.632812 Z M 145.785156 169.632812 "/>
<path style=" stroke:none;fill-rule:nonzero;fill:rgb(100%,71.372549%,71.372549%);fill-opacity:1;" d="M 166.917969 186.957031 C 166.839844 184.800781 167.722656 182.71875 169.320312 181.273438 C 170.921875 179.828125 173.078125 179.171875 175.210938 179.476562 L 187.035156 156.414062 L 193.625 168.15625 L 181.386719 188.257812 C 180.621094 191.894531 177.265625 194.386719 173.574219 194.054688 C 169.882812 193.722656 167.023438 190.675781 166.917969 186.957031 Z M 166.917969 186.957031 "/>
<path style=" stroke:none;fill-rule:nonzero;fill:rgb(42.352941%,38.823529%,100%);fill-opacity:1;" d="M 186.832031 181.316406 L 212.199219 141.875 L 212.117188 141.695312 C 212.019531 141.488281 206.277344 129.042969 200.710938 117.644531 C 199.855469 115.886719 199 114.15625 198.171875 112.5 C 197.816406 111.785156 197.464844 111.082031 197.117188 110.398438 C 194.78125 105.773438 192.738281 101.953125 191.519531 100.140625 C 188.820312 96.035156 184.808594 92.980469 180.140625 91.480469 L 180.023438 91.449219 L 179.910156 91.496094 C 175.210938 93.488281 172.515625 98.484375 173.425781 103.519531 C 175.625 115.316406 180.53125 126.433594 187.75 136.003906 L 191.859375 141.441406 L 177.570312 172.609375 Z M 186.832031 181.316406 "/>
</g>
</svg>
